<?xml version="1.0" encoding="utf-8"?>
<!-- Generator: Adobe Illustrator 18.1.1, SVG Export Plug-In . SVG Version: 6.00 Build 0)  -->
<svg version="1.1"
	 id="svg2" xmlns:dc="http://purl.org/dc/elements/1.1/" xmlns:cc="http://creativecommons.org/ns#" xmlns:svg="http://www.w3.org/2000/svg" xmlns:rdf="http://www.w3.org/1999/02/22-rdf-syntax-ns#"
	 xmlns="http://www.w3.org/2000/svg" xmlns:xlink="http://www.w3.org/1999/xlink" x="0px" y="0px" viewBox="-2517.3 2486 231 131.3"
	 enable-background="new -2517.3 2486 231 131.3" xml:space="preserve">
<g id="g14">
	<g id="g20" transform="translate(45.3639,48.6538)">
		<path id="path22" fill="#4682B4" d="M-2535.7,2562.9l1.3-0.1c0,0.4,0.1,0.7,0.2,1c0.1,0.3,0.3,0.5,0.7,0.7
			c0.3,0.2,0.7,0.3,1.1,0.3c0.6,0,1-0.1,1.3-0.4c0.3-0.2,0.4-0.5,0.4-0.8c0-0.2-0.1-0.5-0.3-0.7c-0.2-0.2-0.6-0.5-1.3-0.8
			c-0.7-0.3-1.2-0.5-1.4-0.6c-0.3-0.2-0.6-0.4-0.7-0.7c-0.2-0.3-0.3-0.6-0.3-0.9c0-0.6,0.2-1.2,0.7-1.6c0.5-0.4,1.2-0.7,2.1-0.7
			c1,0,1.7,0.2,2.3,0.7c0.5,0.5,0.8,1.1,0.8,1.8l-1.3,0.1c0-0.5-0.2-0.8-0.5-1.1c-0.3-0.3-0.8-0.4-1.3-0.4c-0.5,0-0.8,0.1-1.1,0.3
			c-0.3,0.2-0.4,0.4-0.4,0.7c0,0.2,0.1,0.5,0.3,0.7c0.1,0.1,0.5,0.3,1.1,0.6c1,0.4,1.7,0.8,1.9,1.1c0.4,0.4,0.6,0.9,0.6,1.5
			c0,0.4-0.1,0.8-0.4,1.1c-0.2,0.4-0.6,0.7-1.1,0.9c-0.5,0.2-1.1,0.3-1.7,0.3c-0.9,0-1.7-0.2-2.3-0.7
			C-2535.4,2564.6-2535.7,2563.9-2535.7,2562.9"/>
	</g>
	<g id="g24" transform="translate(52.8246,50.1985)">
		<path id="path26" fill="#4682B4" d="M-2533.8,2559.4h4.4c0-0.1,0-0.2,0-0.3c0-0.7-0.2-1.2-0.5-1.5c-0.3-0.4-0.8-0.5-1.3-0.5
			c-0.6,0-1.1,0.2-1.6,0.6C-2533.2,2558-2533.6,2558.6-2533.8,2559.4 M-2529.9,2561.4l1.3,0.1c-0.2,0.6-0.6,1.3-1.3,1.8
			c-0.7,0.6-1.5,0.9-2.4,0.9c-0.6,0-1.1-0.1-1.6-0.4c-0.5-0.3-0.9-0.7-1.1-1.2c-0.3-0.5-0.4-1.1-0.4-1.8c0-0.9,0.2-1.7,0.6-2.5
			c0.4-0.8,0.9-1.4,1.5-1.8c0.6-0.4,1.3-0.6,2-0.6c0.9,0,1.7,0.3,2.2,0.9c0.6,0.6,0.8,1.4,0.8,2.4c0,0.4,0,0.8-0.1,1.2h-5.8
			c0,0.2,0,0.3,0,0.4c0,0.7,0.2,1.3,0.5,1.7c0.3,0.4,0.8,0.6,1.2,0.6c0.5,0,0.9-0.2,1.4-0.4
			C-2530.5,2562.4-2530.1,2561.9-2529.9,2561.4"/>
	</g>
	<g id="g28" transform="translate(59.3387,49.2874)">
		<path id="path30" fill="#4682B4" d="M-2532.2,2561.5c0,0.5,0.1,0.9,0.2,1.2c0.1,0.4,0.4,0.7,0.6,0.9c0.3,0.2,0.6,0.3,0.9,0.3
			c0.4,0,0.9-0.2,1.3-0.5c0.4-0.3,0.8-0.8,1.1-1.4c0.3-0.6,0.4-1.3,0.4-1.8c0-0.6-0.2-1.2-0.5-1.5c-0.4-0.4-0.8-0.6-1.3-0.6
			c-0.3,0-0.6,0.1-0.9,0.3c-0.3,0.2-0.6,0.4-0.9,0.8c-0.3,0.4-0.5,0.8-0.6,1.3C-2532.1,2560.8-2532.2,2561.2-2532.2,2561.5
			 M-2533.8,2565.6l1.4,0.1c0,0.3,0,0.5,0.1,0.7c0.1,0.2,0.2,0.3,0.4,0.4c0.2,0.1,0.6,0.2,0.9,0.2c0.8,0,1.4-0.2,1.7-0.6
			c0.2-0.3,0.4-0.9,0.6-1.8l0.1-0.6c-0.7,0.7-1.4,1.1-2.2,1.1c-0.8,0-1.5-0.3-2-0.9c-0.5-0.6-0.8-1.4-0.8-2.5c0-0.9,0.2-1.7,0.6-2.4
			c0.4-0.7,0.9-1.3,1.5-1.7c0.6-0.4,1.2-0.6,1.8-0.6c1,0,1.8,0.5,2.4,1.5l0.3-1.3h1.2l-1.6,7.6c-0.2,0.8-0.4,1.5-0.7,1.9
			c-0.3,0.5-0.7,0.8-1.2,1.1c-0.5,0.3-1.1,0.4-1.7,0.4c-0.6,0-1.2-0.1-1.6-0.2c-0.5-0.2-0.8-0.4-1-0.7c-0.2-0.3-0.3-0.7-0.3-1.1
			C-2533.9,2565.9-2533.9,2565.8-2533.8,2565.6"/>
	</g>
	<g id="g32" transform="translate(69.0869,47.6428)">
		<path id="path34" fill="#4682B4" d="M-2529.7,2565.2c-0.9,1.1-1.9,1.6-2.9,1.6c-0.6,0-1.1-0.2-1.5-0.5c-0.4-0.3-0.6-0.8-0.6-1.3
			c0-0.3,0.1-0.9,0.3-1.7l0.9-4.5h1.3l-1.1,5c-0.1,0.4-0.1,0.7-0.1,1c0,0.3,0.1,0.5,0.3,0.7c0.2,0.2,0.4,0.2,0.8,0.2
			c0.4,0,0.7-0.1,1.1-0.3c0.4-0.2,0.7-0.4,0.9-0.7c0.3-0.3,0.5-0.7,0.6-1.1c0.1-0.3,0.2-0.7,0.4-1.4l0.7-3.4h1.3l-1.6,7.9h-1.2
			L-2529.7,2565.2z"/>
	</g>
	<g id="g36" transform="translate(71.5361,46.5069)">
		<path id="path38" fill="#4682B4" d="M-2529.1,2567.7l1.6-7.9h1.2l-0.3,1.6c0.4-0.6,0.8-1.1,1.2-1.3c0.4-0.3,0.8-0.4,1.2-0.4
			c0.3,0,0.6,0.1,1,0.3l-0.5,1.2c-0.2-0.2-0.5-0.3-0.8-0.3c-0.5,0-0.9,0.3-1.4,0.8c-0.5,0.5-0.9,1.5-1.2,2.8l-0.7,3.2H-2529.1z"/>
	</g>
	<g id="g40" transform="translate(76.8316,48.9969)">
		<path id="path42" fill="#4682B4" d="M-2527.8,2562.1c0,0.7,0.2,1.3,0.5,1.7c0.4,0.4,0.8,0.6,1.4,0.6c0.3,0,0.6-0.1,0.9-0.2
			c0.3-0.1,0.5-0.3,0.8-0.5c0.2-0.2,0.4-0.5,0.6-0.8c0.2-0.3,0.3-0.6,0.4-1c0.2-0.5,0.2-1,0.2-1.4c0-0.7-0.2-1.3-0.5-1.7
			c-0.4-0.4-0.8-0.6-1.3-0.6c-0.4,0-0.8,0.1-1.1,0.3c-0.3,0.2-0.7,0.5-0.9,0.9c-0.3,0.4-0.5,0.8-0.6,1.3
			C-2527.7,2561.3-2527.8,2561.7-2527.8,2562.1 M-2529.1,2562.2c0-1.5,0.5-2.8,1.4-3.8c0.7-0.8,1.7-1.2,2.9-1.2
			c0.9,0,1.7,0.3,2.3,0.9c0.6,0.6,0.9,1.4,0.9,2.4c0,0.9-0.2,1.7-0.5,2.5c-0.4,0.8-0.9,1.4-1.6,1.8c-0.7,0.4-1.4,0.6-2.1,0.6
			c-0.6,0-1.2-0.1-1.7-0.4c-0.5-0.3-0.9-0.6-1.1-1.1C-2529,2563.4-2529.1,2562.9-2529.1,2562.2"/>
	</g>
	<g id="g44" transform="translate(85.5938,46.5069)">
		<path id="path46" fill="#4682B4" d="M-2525.6,2567.7l2.3-10.8h1.3l-2.3,10.8H-2525.6z"/>
	</g>
	<g id="g48" transform="translate(89.6272,48.9969)">
		<path id="path50" fill="#4682B4" d="M-2524.6,2562.1c0,0.7,0.2,1.3,0.5,1.7c0.4,0.4,0.8,0.6,1.4,0.6c0.3,0,0.6-0.1,0.9-0.2
			c0.3-0.1,0.5-0.3,0.8-0.5c0.2-0.2,0.4-0.5,0.6-0.8c0.2-0.3,0.3-0.6,0.4-1c0.2-0.5,0.2-1,0.2-1.4c0-0.7-0.2-1.3-0.5-1.7
			c-0.4-0.4-0.8-0.6-1.3-0.6c-0.4,0-0.8,0.1-1.1,0.3c-0.3,0.2-0.7,0.5-0.9,0.9c-0.3,0.4-0.5,0.8-0.6,1.3
			C-2524.5,2561.3-2524.6,2561.7-2524.6,2562.1 M-2525.9,2562.2c0-1.5,0.4-2.8,1.4-3.8c0.7-0.8,1.7-1.2,2.9-1.2
			c0.9,0,1.7,0.3,2.3,0.9c0.6,0.6,0.9,1.4,0.9,2.4c0,0.9-0.2,1.7-0.5,2.5c-0.4,0.8-0.9,1.4-1.6,1.8c-0.7,0.4-1.4,0.6-2.1,0.6
			c-0.6,0-1.2-0.1-1.7-0.4c-0.5-0.3-0.9-0.6-1.1-1.1C-2525.8,2563.4-2525.9,2562.9-2525.9,2562.2"/>
	</g>
	<g id="g52" transform="translate(100.9753,47.3759)">
		<path id="path54" fill="#4682B4" d="M-2521.8,2565.8l-0.2,1.1c-0.3,0.1-0.6,0.1-0.9,0.1c-0.5,0-1-0.1-1.3-0.4
			c-0.2-0.2-0.4-0.5-0.4-0.8c0-0.2,0.1-0.6,0.2-1.2l1-4.6h-1.1l0.2-1h1.1l0.4-1.9l1.5-0.9l-0.6,2.9h1.3l-0.2,1h-1.3l-0.9,4.3
			c-0.1,0.6-0.2,0.9-0.2,1c0,0.2,0,0.3,0.1,0.4c0.1,0.1,0.2,0.1,0.4,0.1C-2522.3,2565.9-2522,2565.8-2521.8,2565.8"/>
	</g>
	<g id="g56" transform="translate(101.8391,46.5069)">
		<path id="path58" fill="#4682B4" d="M-2521.5,2567.7l1.6-7.9h1.2l-0.3,1.6c0.4-0.6,0.8-1.1,1.2-1.3c0.4-0.3,0.8-0.4,1.2-0.4
			c0.3,0,0.6,0.1,1,0.3l-0.5,1.2c-0.2-0.2-0.5-0.3-0.8-0.3c-0.5,0-0.9,0.3-1.4,0.8c-0.5,0.5-0.9,1.5-1.2,2.8l-0.7,3.2H-2521.5z"/>
	</g>
	<g id="g60" transform="translate(110.5053,49.6897)">
		<path id="path62" fill="#4682B4" d="M-2519.4,2560.6c-0.2,0.1-0.4,0.1-0.6,0.2c-0.2,0-0.6,0.1-1.1,0.1c-0.8,0.1-1.3,0.2-1.6,0.3
			c-0.3,0.1-0.6,0.3-0.7,0.5c-0.2,0.2-0.2,0.5-0.2,0.8c0,0.4,0.1,0.7,0.4,0.9c0.3,0.2,0.6,0.4,1.1,0.4c0.4,0,0.9-0.1,1.3-0.4
			c0.4-0.2,0.7-0.6,1-1C-2519.7,2561.9-2519.5,2561.3-2519.4,2560.6 M-2519.9,2563.6c-0.5,0.4-0.9,0.7-1.3,0.9
			c-0.4,0.2-0.9,0.3-1.4,0.3c-0.7,0-1.3-0.2-1.8-0.6c-0.4-0.4-0.7-1-0.7-1.6c0-0.4,0.1-0.8,0.3-1.2c0.2-0.3,0.5-0.6,0.8-0.8
			c0.3-0.2,0.7-0.3,1.2-0.4c0.3-0.1,0.9-0.1,1.7-0.1c0.8,0,1.4-0.1,1.8-0.3c0.1-0.4,0.2-0.7,0.2-0.9c0-0.3-0.1-0.6-0.3-0.7
			c-0.3-0.2-0.8-0.4-1.4-0.4c-0.6,0-1,0.1-1.4,0.4c-0.4,0.2-0.6,0.6-0.8,1.1l-1.4-0.1c0.3-0.8,0.7-1.4,1.3-1.8
			c0.6-0.4,1.4-0.6,2.3-0.6c1,0,1.7,0.2,2.3,0.7c0.4,0.3,0.7,0.8,0.7,1.3c0,0.4-0.1,0.9-0.2,1.5l-0.4,2c-0.1,0.6-0.2,1.1-0.2,1.5
			c0,0.2,0.1,0.6,0.2,1.1h-1.4C-2519.8,2564.3-2519.8,2564-2519.9,2563.6"/>
	</g>
	<g id="g64" transform="translate(112.6061,46.5069)">
		<path id="path66" fill="#4682B4" d="M-2518.8,2567.7l1.6-7.9h1.3l-0.3,1.3c0.5-0.6,0.9-0.9,1.3-1.2c0.4-0.2,0.8-0.3,1.3-0.3
			c0.5,0,0.9,0.1,1.2,0.4c0.3,0.3,0.5,0.6,0.6,1.1c0.4-0.5,0.8-0.9,1.3-1.1c0.4-0.2,0.9-0.4,1.4-0.4c0.7,0,1.1,0.2,1.5,0.5
			c0.3,0.3,0.5,0.7,0.5,1.3c0,0.2-0.1,0.6-0.2,1.2l-1.1,5.1h-1.3l1.1-5.2c0.1-0.4,0.1-0.7,0.1-0.9c0-0.3-0.1-0.5-0.2-0.6
			c-0.2-0.1-0.4-0.2-0.7-0.2c-0.4,0-0.8,0.1-1.2,0.4c-0.4,0.2-0.7,0.6-1,0.9c-0.2,0.4-0.4,1-0.6,1.8l-0.8,3.8h-1.3l1.1-5.3
			c0.1-0.4,0.1-0.6,0.1-0.8c0-0.3-0.1-0.5-0.2-0.6c-0.2-0.2-0.4-0.2-0.6-0.2c-0.4,0-0.8,0.1-1.2,0.4c-0.4,0.2-0.8,0.6-1,1
			c-0.3,0.4-0.5,1-0.6,1.8l-0.8,3.7H-2518.8z"/>
	</g>
	<g id="g68" transform="translate(124.2238,53.9663)">
		<path id="path70" fill="#4682B4" d="M-2515.9,2550.9l0.3-1.5h1.3l-0.3,1.5H-2515.9z M-2517.9,2560.3l1.6-7.9h1.3l-1.6,7.9
			C-2516.6,2560.3-2517.9,2560.3-2517.9,2560.3z"/>
	</g>
	<g id="g72" transform="translate(127.8982,47.3759)">
		<path id="path74" fill="#4682B4" d="M-2515,2565.8l-0.2,1.1c-0.3,0.1-0.6,0.1-0.9,0.1c-0.5,0-1-0.1-1.3-0.4
			c-0.2-0.2-0.4-0.5-0.4-0.8c0-0.2,0.1-0.6,0.2-1.2l1-4.6h-1.1l0.2-1h1.1l0.4-1.9l1.5-0.9l-0.6,2.9h1.3l-0.2,1h-1.3l-0.9,4.3
			c-0.1,0.6-0.2,0.9-0.2,1c0,0.2,0,0.3,0.1,0.4c0.1,0.1,0.2,0.1,0.4,0.1C-2515.5,2565.9-2515.3,2565.8-2515,2565.8"/>
	</g>
	<g id="g76" transform="translate(133.3948,49.6897)">
		<path id="path78" fill="#4682B4" d="M-2513.7,2560.6c-0.2,0.1-0.4,0.1-0.6,0.2c-0.2,0-0.6,0.1-1.1,0.1c-0.8,0.1-1.3,0.2-1.6,0.3
			c-0.3,0.1-0.6,0.3-0.7,0.5c-0.2,0.2-0.2,0.5-0.2,0.8c0,0.4,0.1,0.7,0.4,0.9c0.3,0.2,0.6,0.4,1.1,0.4c0.4,0,0.9-0.1,1.3-0.4
			c0.4-0.2,0.7-0.6,1-1C-2514,2561.9-2513.8,2561.3-2513.7,2560.6 M-2514.1,2563.6c-0.5,0.4-0.9,0.7-1.3,0.9
			c-0.4,0.2-0.9,0.3-1.4,0.3c-0.7,0-1.3-0.2-1.8-0.6c-0.4-0.4-0.7-1-0.7-1.6c0-0.4,0.1-0.8,0.3-1.2c0.2-0.3,0.5-0.6,0.8-0.8
			c0.3-0.2,0.7-0.3,1.2-0.4c0.3-0.1,0.9-0.1,1.7-0.1c0.8,0,1.4-0.1,1.8-0.3c0.1-0.4,0.2-0.7,0.2-0.9c0-0.3-0.1-0.6-0.3-0.7
			c-0.3-0.2-0.8-0.4-1.4-0.4c-0.6,0-1,0.1-1.4,0.4c-0.4,0.2-0.6,0.6-0.8,1.1l-1.4-0.1c0.3-0.8,0.7-1.4,1.3-1.8
			c0.6-0.4,1.4-0.6,2.3-0.6c1,0,1.7,0.2,2.3,0.7c0.4,0.3,0.7,0.8,0.7,1.3c0,0.4-0.1,0.9-0.2,1.5l-0.4,2c-0.1,0.6-0.2,1.1-0.2,1.5
			c0,0.2,0.1,0.6,0.2,1.1h-1.4C-2514.1,2564.3-2514.1,2564-2514.1,2563.6"/>
	</g>
	<g id="g80" transform="translate(135.4943,46.5069)">
		<path id="path82" fill="#4682B4" d="M-2513.1,2567.7l1.6-7.9h1.3l-0.3,1.3c0.5-0.6,0.9-0.9,1.3-1.2c0.4-0.2,0.8-0.3,1.3-0.3
			c0.5,0,0.9,0.1,1.2,0.4c0.3,0.3,0.5,0.6,0.6,1.1c0.4-0.5,0.8-0.9,1.3-1.1c0.4-0.2,0.9-0.4,1.4-0.4c0.7,0,1.1,0.2,1.5,0.5
			c0.3,0.3,0.5,0.7,0.5,1.3c0,0.2-0.1,0.6-0.2,1.2l-1.1,5.1h-1.3l1.1-5.2c0.1-0.4,0.1-0.7,0.1-0.9c0-0.3-0.1-0.5-0.2-0.6
			c-0.2-0.1-0.4-0.2-0.7-0.2c-0.4,0-0.8,0.1-1.2,0.4c-0.4,0.2-0.7,0.6-1,0.9c-0.2,0.4-0.4,1-0.6,1.8l-0.8,3.8h-1.3l1.1-5.3
			c0.1-0.4,0.1-0.6,0.1-0.8c0-0.3-0.1-0.5-0.2-0.6c-0.2-0.2-0.4-0.2-0.6-0.2c-0.4,0-0.8,0.1-1.2,0.4c-0.4,0.2-0.8,0.6-1,1
			c-0.3,0.4-0.5,1-0.6,1.8l-0.8,3.7H-2513.1z"/>
	</g>
	<g id="g84" transform="translate(146.853,48.9969)">
		<path id="path86" fill="#4682B4" d="M-2510.3,2562.1c0,0.7,0.2,1.3,0.5,1.7c0.4,0.4,0.8,0.6,1.4,0.6c0.3,0,0.6-0.1,0.9-0.2
			c0.3-0.1,0.5-0.3,0.8-0.5c0.2-0.2,0.4-0.5,0.6-0.8c0.2-0.3,0.3-0.6,0.4-1c0.2-0.5,0.2-1,0.2-1.4c0-0.7-0.2-1.3-0.5-1.7
			c-0.4-0.4-0.8-0.6-1.3-0.6c-0.4,0-0.8,0.1-1.1,0.3c-0.3,0.2-0.7,0.5-0.9,0.9c-0.3,0.4-0.5,0.8-0.6,1.3
			C-2510.2,2561.3-2510.3,2561.7-2510.3,2562.1 M-2511.6,2562.2c0-1.5,0.5-2.8,1.4-3.8c0.7-0.8,1.7-1.2,2.9-1.2
			c0.9,0,1.7,0.3,2.3,0.9c0.6,0.6,0.9,1.4,0.9,2.4c0,0.9-0.2,1.7-0.5,2.5c-0.4,0.8-0.9,1.4-1.6,1.8c-0.7,0.4-1.4,0.6-2.1,0.6
			c-0.6,0-1.2-0.1-1.7-0.4c-0.5-0.3-0.9-0.6-1.1-1.1C-2511.5,2563.4-2511.6,2562.9-2511.6,2562.2"/>
	</g>
	<g id="g88" transform="translate(152.4311,48.6538)">
		<path id="path90" fill="#4682B4" d="M-2508.9,2562.9l1.3-0.1c0,0.4,0.1,0.7,0.2,1c0.1,0.3,0.3,0.5,0.7,0.7
			c0.3,0.2,0.7,0.3,1.1,0.3c0.6,0,1-0.1,1.3-0.4c0.3-0.2,0.4-0.5,0.4-0.8c0-0.2-0.1-0.5-0.3-0.7c-0.2-0.2-0.6-0.5-1.3-0.8
			c-0.7-0.3-1.2-0.5-1.4-0.6c-0.3-0.2-0.6-0.4-0.7-0.7c-0.2-0.3-0.3-0.6-0.3-0.9c0-0.6,0.2-1.2,0.7-1.6c0.5-0.4,1.2-0.7,2.1-0.7
			c1,0,1.7,0.2,2.3,0.7c0.5,0.5,0.8,1.1,0.8,1.8l-1.3,0.1c0-0.5-0.2-0.8-0.5-1.1c-0.3-0.3-0.8-0.4-1.3-0.4c-0.5,0-0.8,0.1-1.1,0.3
			c-0.3,0.2-0.4,0.4-0.4,0.7c0,0.2,0.1,0.5,0.3,0.7c0.1,0.1,0.5,0.3,1.1,0.6c1,0.4,1.7,0.8,1.9,1.1c0.4,0.4,0.6,0.9,0.6,1.5
			c0,0.4-0.1,0.8-0.4,1.1c-0.2,0.4-0.6,0.7-1.1,0.9c-0.5,0.2-1.1,0.3-1.7,0.3c-0.9,0-1.7-0.2-2.3-0.7
			C-2508.6,2564.6-2508.9,2563.9-2508.9,2562.9"/>
	</g>
	<g id="g92" transform="translate(163.3467,49.0745)">
		<path id="path94" fill="#4682B4" d="M-2506.2,2561.9c0,0.6,0,1,0.1,1.2c0.1,0.3,0.3,0.6,0.6,0.8c0.3,0.2,0.6,0.3,1,0.3
			c0.8,0,1.4-0.4,1.9-1.3c0.5-0.9,0.7-1.7,0.7-2.6c0-0.7-0.2-1.2-0.5-1.5c-0.3-0.4-0.7-0.5-1.2-0.5c-0.3,0-0.7,0.1-0.9,0.3
			c-0.3,0.2-0.6,0.4-0.8,0.8c-0.2,0.4-0.5,0.8-0.6,1.3C-2506.1,2561.1-2506.2,2561.6-2506.2,2561.9 M-2508.8,2568.2l2.3-10.9h1.2
			l-0.2,1.1c0.5-0.5,0.9-0.8,1.2-1c0.4-0.2,0.7-0.3,1.1-0.3c0.8,0,1.4,0.3,1.9,0.8c0.5,0.5,0.7,1.3,0.7,2.3c0,0.8-0.1,1.6-0.4,2.2
			c-0.3,0.7-0.6,1.2-1,1.6c-0.4,0.4-0.8,0.7-1.2,0.9c-0.4,0.2-0.8,0.3-1.2,0.3c-0.9,0-1.7-0.5-2.2-1.4l-0.9,4.3H-2508.8z"/>
	</g>
	<g id="g96" transform="translate(169.7531,48.9969)">
		<path id="path98" fill="#4682B4" d="M-2504.6,2562.1c0,0.7,0.2,1.3,0.5,1.7c0.4,0.4,0.8,0.6,1.4,0.6c0.3,0,0.6-0.1,0.9-0.2
			c0.3-0.1,0.5-0.3,0.8-0.5c0.2-0.2,0.4-0.5,0.6-0.8c0.2-0.3,0.3-0.6,0.4-1c0.2-0.5,0.2-1,0.2-1.4c0-0.7-0.2-1.3-0.5-1.7
			c-0.4-0.4-0.8-0.6-1.3-0.6c-0.4,0-0.8,0.1-1.1,0.3c-0.3,0.2-0.7,0.5-0.9,0.9c-0.3,0.4-0.5,0.8-0.6,1.3
			C-2504.5,2561.3-2504.6,2561.7-2504.6,2562.1 M-2505.9,2562.2c0-1.5,0.4-2.8,1.4-3.8c0.7-0.8,1.7-1.2,2.9-1.2
			c0.9,0,1.7,0.3,2.3,0.9c0.6,0.6,0.9,1.4,0.9,2.4c0,0.9-0.2,1.7-0.5,2.5c-0.4,0.8-0.9,1.4-1.6,1.8c-0.7,0.4-1.4,0.6-2.1,0.6
			c-0.6,0-1.2-0.1-1.7-0.4c-0.5-0.3-0.9-0.6-1.1-1.1C-2505.8,2563.4-2505.9,2562.9-2505.9,2562.2"/>
	</g>
	<g id="g100" transform="translate(175.2313,46.5069)">
		<path id="path102" fill="#4682B4" d="M-2503.2,2567.7l1.6-7.9h1.2l-0.3,1.6c0.4-0.6,0.8-1.1,1.2-1.3c0.4-0.3,0.8-0.4,1.2-0.4
			c0.3,0,0.6,0.1,1,0.3l-0.5,1.2c-0.2-0.2-0.5-0.3-0.8-0.3c-0.5,0-0.9,0.3-1.4,0.8c-0.5,0.5-0.9,1.5-1.2,2.8l-0.7,3.2H-2503.2z"/>
	</g>
	<g id="g104" transform="translate(185.1359,47.3759)">
		<path id="path106" fill="#4682B4" d="M-2500.7,2565.8l-0.2,1.1c-0.3,0.1-0.6,0.1-0.9,0.1c-0.5,0-1-0.1-1.3-0.4
			c-0.2-0.2-0.4-0.5-0.4-0.8c0-0.2,0.1-0.6,0.2-1.2l1-4.6h-1.1l0.2-1h1.1l0.4-1.9l1.5-0.9l-0.6,2.9h1.3l-0.2,1h-1.3l-0.9,4.3
			c-0.1,0.6-0.2,0.9-0.2,1c0,0.2,0,0.3,0.1,0.4c0.1,0.1,0.2,0.1,0.4,0.1C-2501.2,2565.9-2500.9,2565.8-2500.7,2565.8"/>
	</g>
	<g id="g108" transform="translate(187.5181,53.9663)">
		<path id="path110" fill="#4682B4" d="M-2500.1,2550.9l0.3-1.5h1.3l-0.3,1.5H-2500.1z M-2502.1,2560.3l1.6-7.9h1.3l-1.6,7.9
			C-2500.7,2560.3-2502.1,2560.3-2502.1,2560.3z"/>
	</g>
	<g id="g112" transform="translate(99.7363,137.044)">
		<path id="path114" fill="#4682B4" d="M-2522.1,2364c-0.7-0.4-1.5-0.7-2.4-0.7c-1,0-1.7,0.2-2.1,0.5c-0.4,0.3-0.7,0.8-0.7,1.3
			c0,0.5,0.3,1,0.8,1.2c0.6,0.3,1.8,0.5,3.7,0.8c2.8,0.3,5,0.8,6.4,1.3c0.7,0.3,1.4,0.7,1.9,1.1v-4.6l-6.5,0.6
			C-2521.2,2364.9-2521.6,2364.3-2522.1,2364"/>
	</g>
	<g id="g116" transform="translate(57.0064,135.1975)">
		<path id="path118" fill="#4682B4" d="M-2532.7,2368.2c-0.8-0.9-1.7-1.3-2.8-1.3s-2,0.4-2.6,1.2c-0.7,0.8-1,2.1-1,4
			c0,1.6,0.3,2.8,1,3.6c0.7,0.8,1.6,1.2,2.7,1.2c1.1,0,2-0.4,2.7-1.2c0.7-0.8,1.1-2,1.1-3.7C-2531.6,2370.3-2532,2369-2532.7,2368.2
			"/>
	</g>
	<g id="g120" transform="translate(79.7102,136.2832)">
		<path id="path122" fill="#4682B4" d="M-2527.1,2365.7c-0.7-0.7-1.7-1.1-2.9-1.1c-1.4,0-2.5,0.5-3.3,1.6c-0.5,0.7-0.9,1.7-1,3h8.4
			C-2525.9,2367.6-2526.4,2366.4-2527.1,2365.7"/>
	</g>
	<g id="g124" transform="translate(99.7363,88.8098)">
		<path id="path126" fill="#4682B4" d="M-2522.1,2472.5c-0.7-0.4-1.5-0.7-2.4-0.7c-1,0-1.7,0.2-2.1,0.5c-0.4,0.3-0.7,0.8-0.7,1.3
			c0,0.5,0.3,1,0.8,1.2c0.6,0.3,1.8,0.5,3.7,0.8c2.8,0.3,5,0.8,6.4,1.3c0.7,0.3,1.4,0.7,1.9,1.1v-4.6l-6.5,0.6
			C-2521.2,2473.4-2521.6,2472.9-2522.1,2472.5"/>
	</g>
	<g id="g128" transform="translate(87.7601,81.9139)">
		<path id="path130" fill="#4682B4" d="M-2525.1,2488.1h-17.2c0.2,1.4,0.5,2.4,1.1,3.1c0.8,1,1.9,1.5,3.2,1.5c0.8,0,1.6-0.2,2.4-0.6
			c0.5-0.3,1-0.7,1.5-1.4l8.4,0.8c-1.3,2.2-2.8,3.9-4.7,4.8c-1.8,1-4.4,1.5-7.9,1.5c-3,0-5.3-0.4-7-1.3c-1.7-0.8-3.1-2.2-4.2-4
			c-1.1-1.8-1.7-4-1.7-6.4c0-3.5,1.1-6.3,3.4-8.5c2.2-2.2,5.3-3.2,9.3-3.2c3.2,0,5.7,0.5,7.6,1.5c1.9,1,3.3,2.4,4.2,4.2
			c1,1.8,1.5,4.2,1.5,7.2V2488.1z M-2555.8,2480.9c-1.1,0-2,0.5-2.6,1.4c-0.9,1.3-1.3,3.8-1.3,7.3v7.5h-8.6v-22.4h8v3.7
			c0.8-1.6,1.6-2.7,2.4-3.3c0.8-0.6,1.8-0.9,3-0.9c1.3,0,2.6,0.4,4.2,1.2l-2.7,6.1C-2554.4,2481.1-2555.2,2480.9-2555.8,2480.9
			 M-2577.8,2438.5c0-0.3,0-0.7,0-1.1l8.3,0.9c0.2,0.8,0.5,1.3,1,1.6c0.6,0.4,1.4,0.7,2.4,0.7c1.2,0,2.2-0.3,2.8-1
			c0.6-0.7,0.9-1.8,0.9-3.5v-3.4c-0.8,1-1.7,1.7-2.5,2.2c-1.3,0.7-2.7,1.1-4.3,1.1c-3,0-5.4-1.3-7.2-3.9c-1.3-1.9-2-4.3-2-7.4
			c0-3.5,0.8-6.1,2.5-8c1.7-1.8,3.9-2.7,6.6-2.7c1.7,0,3.2,0.3,4.3,0.9c1.1,0.6,2.2,1.6,3.2,2.9v-3.3h8v21.1l0,1
			c0,1.4-0.3,2.7-0.9,4c-0.6,1.3-1.4,2.3-2.4,3.1c-1,0.8-2.2,1.4-3.8,1.7c-1.5,0.3-3.3,0.5-5.2,0.5c-4.5,0-7.6-0.7-9.3-2
			C-2577,2442.5-2577.8,2440.7-2577.8,2438.5 M-2544.1,2453.9v-6.3h3.2v-4.1l8.6-4.4v8.5h4.7v6.3h-4.7v7.9c0,1,0.1,1.6,0.3,1.9
			c0.3,0.5,0.8,0.7,1.5,0.7c0.6,0,1.5-0.2,2.7-0.5l0.6,5.9c-2.1,0.5-4.1,0.7-5.9,0.7c-2.1,0-3.7-0.3-4.7-0.8c-1-0.5-1.8-1.4-2.2-2.5
			c-0.5-1.1-0.7-2.9-0.7-5.4v-7.9C-2540.9,2453.9-2544.1,2453.9-2544.1,2453.9z M-2547.6,2417.2c2.2-2.2,5.3-3.2,9.3-3.2
			c3.2,0,5.7,0.5,7.6,1.5c1.9,1,3.3,2.4,4.2,4.2c1,1.8,1.5,4.2,1.5,7.2v1h-17.2c0.2,1.4,0.5,2.4,1.1,3.1c0.8,1,1.9,1.5,3.2,1.5
			c0.8,0,1.6-0.2,2.4-0.6c0.5-0.3,1-0.7,1.5-1.4l8.4,0.8c-1.3,2.2-2.9,3.9-4.7,4.8c-1.8,1-4.4,1.5-7.9,1.5c-3,0-5.3-0.4-7-1.3
			c-1.7-0.8-3.1-2.2-4.2-4c-1.1-1.8-1.7-4-1.7-6.4C-2551,2422.2-2549.9,2419.3-2547.6,2417.2 M-2505,2496.5c-1.7,0.7-4,1.1-6.9,1.1
			c-4.1,0-7-0.6-8.7-1.7c-1.7-1.2-2.8-2.8-3.3-5l8.5-0.8c0.4,1,0.8,1.7,1.5,2.2c0.6,0.4,1.5,0.7,2.5,0.7c1.2,0,2-0.2,2.7-0.7
			c0.5-0.4,0.7-0.8,0.7-1.4c0-0.6-0.3-1.1-1-1.4c-0.5-0.2-1.7-0.5-3.7-0.9c-3-0.5-5-1-6.2-1.4c-1.2-0.4-2.1-1.2-2.9-2.2
			c-0.8-1.1-1.2-2.3-1.2-3.6c0-1.5,0.4-2.7,1.3-3.8c0.9-1.1,2-1.9,3.5-2.4c1.5-0.5,3.5-0.8,6-0.8c2.7,0,4.6,0.2,5.9,0.6
			c1.3,0.4,2.3,1,3.2,1.9c0.2,0.2,0.3,0.4,0.5,0.6v-11.4c-0.3,0.4-0.7,0.9-1.1,1.3c-2.3,2.2-5.4,3.3-9.5,3.3c-3.6,0-6.5-0.9-8.7-2.7
			c-2.7-2.3-4.1-5.2-4.1-8.9c0-3.4,1.2-6.2,3.5-8.4c2.3-2.2,5.4-3.3,9.3-3.3c4.5,0,7.9,1.3,10.2,3.9c0.2,0.2,0.3,0.4,0.4,0.6v-16.9
			c-0.7,0.6-1.5,1.1-2.5,1.6c-1.7,0.7-4,1.1-6.9,1.1c-4.1,0-7-0.6-8.7-1.7c-1.7-1.2-2.8-2.8-3.3-5l8.5-0.8c0.4,1,0.8,1.7,1.5,2.2
			c0.6,0.4,1.5,0.7,2.5,0.7c1.2,0,2-0.2,2.7-0.7c0.5-0.4,0.7-0.8,0.7-1.4c0-0.6-0.3-1.1-1-1.4c-0.5-0.2-1.7-0.5-3.7-0.9
			c-3-0.5-5-1-6.2-1.4c-1.2-0.4-2.1-1.2-2.9-2.2c-0.8-1.1-1.2-2.3-1.2-3.6c0-1.5,0.4-2.7,1.3-3.8c0.9-1.1,2-1.9,3.5-2.4
			c1.5-0.5,3.5-0.8,6-0.8c2.7,0,4.6,0.2,5.9,0.6c1.3,0.4,2.3,1,3.2,1.9c0.2,0.2,0.3,0.4,0.5,0.6v-12.9H-2605v102.5h102.5V2495
			C-2503.2,2495.6-2504,2496.1-2505,2496.5"/>
	</g>
	<g id="g132" transform="translate(94.9484,108.8015)">
		<path id="path134" fill="#4682B4" d="M-2523.3,2427.6c-0.8,1-1.2,2.4-1.2,4.4c0,2,0.4,3.5,1.2,4.4c0.8,1,1.8,1.4,3,1.4
			c1.2,0,2.3-0.5,3-1.4c0.8-0.9,1.2-2.4,1.2-4.5c0-1.9-0.4-3.4-1.2-4.3c-0.8-0.9-1.8-1.4-3-1.4
			C-2521.4,2426.1-2522.4,2426.6-2523.3,2427.6"/>
	</g>
	<g id="g136" transform="translate(77.4278,88.9088)">
		<path id="path138" fill="#4682B4" d="M-2527.6,2472.3c-1.4,0-2.5,0.5-3.3,1.6c-0.5,0.7-0.9,1.7-1,3h8.4c-0.2-1.7-0.6-2.8-1.3-3.6
			C-2525.5,2472.7-2526.5,2472.3-2527.6,2472.3"/>
	</g>
	<g id="g140" transform="translate(133.7261,117.9508)">
		<path id="path142" fill="#4682B4" d="M-2513.6,2407c-0.1-1-0.4-1.8-0.8-2.2c-0.5-0.4-1-0.7-1.8-0.7c-0.9,0-1.5,0.3-2,1
			c-0.3,0.4-0.5,1-0.6,1.9H-2513.6z M-2508.1,2409.5h-10.7c0.1,0.9,0.3,1.5,0.7,1.9c0.5,0.6,1.2,0.9,2,0.9c0.5,0,1-0.1,1.5-0.4
			c0.3-0.2,0.6-0.5,0.9-0.9l5.3,0.5c-0.8,1.4-1.8,2.4-2.9,3c-1.1,0.6-2.8,0.9-4.9,0.9c-1.8,0-3.3-0.3-4.4-0.8
			c-1.1-0.5-1.9-1.3-2.6-2.5c-0.7-1.1-1-2.5-1-4c0-2.2,0.7-3.9,2.1-5.3c1.4-1.3,3.3-2,5.8-2c2,0,3.6,0.3,4.7,0.9
			c1.2,0.6,2,1.5,2.6,2.6c0.6,1.1,0.9,2.6,0.9,4.5V2409.5z"/>
	</g>
	<g id="g144" transform="translate(140.047,122.5469)">
		<path id="path146" fill="#4682B4" d="M-2512,2396.6h5v2.3c0.7-0.9,1.5-1.6,2.3-2c0.8-0.4,1.7-0.6,2.8-0.6c1.5,0,2.6,0.4,3.5,1.3
			c0.8,0.9,1.3,2.2,1.3,4.1v8.9h-5.4v-7.7c0-0.9-0.2-1.5-0.5-1.9c-0.3-0.4-0.8-0.5-1.4-0.5c-0.6,0-1.2,0.2-1.6,0.7
			c-0.4,0.5-0.6,1.4-0.6,2.6v6.7h-5.4V2396.6z"/>
	</g>
	<g id="g148" transform="translate(125.9118,100.9483)">
		<path id="path150" fill="#4682B4" d="M-2515.5,2445.2h7.8l3,11.7l3-11.7h7.8v19.3h-4.9v-14.7l-3.8,14.7h-4.4l-3.8-14.7v14.7h-4.9
			V2445.2z"/>
	</g>
	<g id="g152" transform="translate(151.7843,101.2113)">
		<path id="path154" fill="#4682B4" d="M-2509.1,2444.6h4.6l-4.2,3.9h-2.6L-2509.1,2444.6z M-2506.2,2456c-0.1-1-0.4-1.8-0.8-2.2
			c-0.5-0.4-1-0.7-1.8-0.7c-0.9,0-1.5,0.3-2,1c-0.3,0.4-0.5,1-0.6,1.9H-2506.2z M-2500.8,2458.6h-10.7c0.1,0.9,0.3,1.5,0.7,1.9
			c0.5,0.6,1.2,0.9,2,0.9c0.5,0,1-0.1,1.5-0.4c0.3-0.2,0.6-0.5,0.9-0.9l5.3,0.5c-0.8,1.4-1.8,2.4-2.9,3c-1.1,0.6-2.8,0.9-4.9,0.9
			c-1.8,0-3.3-0.3-4.4-0.8c-1.1-0.5-1.9-1.3-2.6-2.5c-0.7-1.1-1-2.5-1-4c0-2.2,0.7-3.9,2.1-5.3c1.4-1.3,3.3-2,5.8-2
			c2,0,3.6,0.3,4.7,0.9c1.2,0.6,2,1.5,2.6,2.6c0.6,1.1,0.9,2.6,0.9,4.5C-2500.8,2458-2500.8,2458.6-2500.8,2458.6z"/>
	</g>
	<g id="g156" transform="translate(159.4198,96.6993)">
		<path id="path158" fill="#4682B4" d="M-2507.1,2454.8h6.4l2.2,3.9l2.6-3.9h5.9l-4.8,6.7l5.1,7.3h-6.2l-2.6-4.5l-3,4.5h-5.8
			l5.1-7.3L-2507.1,2454.8z"/>
	</g>
	<path id="path160" fill="#4682B4" d="M-2328.4,2551.5h5.4v14h-5.4V2551.5z M-2328.4,2546.2h5.4v3.6h-5.4V2546.2z"/>
	<g id="g162" transform="translate(190.246,89.9052)">
		<path id="path164" fill="#4682B4" d="M-2499.4,2470.1l5.1,0.6c-0.3,1.1-0.7,2-1.4,2.8c-0.6,0.8-1.5,1.4-2.5,1.8
			c-1,0.4-2.3,0.6-3.8,0.6c-1.5,0-2.7-0.1-3.7-0.4c-1-0.3-1.8-0.7-2.5-1.3c-0.7-0.6-1.3-1.3-1.7-2.2c-0.4-0.8-0.6-1.9-0.6-3.3
			c0-1.4,0.2-2.6,0.7-3.6c0.4-0.7,0.8-1.3,1.5-1.9c0.6-0.6,1.3-1,1.9-1.2c1-0.4,2.4-0.6,4-0.6c2.3,0,4,0.4,5.2,1.2
			c1.2,0.8,2,2,2.5,3.6l-5,0.7c-0.2-0.6-0.4-1-0.9-1.3c-0.4-0.3-1-0.5-1.7-0.5c-0.9,0-1.6,0.3-2.1,1c-0.5,0.6-0.8,1.6-0.8,2.9
			c0,1.1,0.3,2,0.8,2.6c0.5,0.6,1.2,0.9,2.1,0.9c0.7,0,1.3-0.2,1.8-0.5C-2500,2471.4-2499.7,2470.8-2499.4,2470.1"/>
	</g>
	<g id="g166" transform="translate(200.0481,91.0936)">
		<path id="path168" fill="#4682B4" d="M-2497,2467.4c0,1.2,0.3,2.2,0.8,2.8c0.5,0.6,1.1,0.9,1.9,0.9c0.8,0,1.4-0.3,1.9-0.9
			c0.5-0.6,0.7-1.5,0.7-2.8c0-1.2-0.2-2.1-0.7-2.7c-0.5-0.6-1.1-0.9-1.9-0.9c-0.8,0-1.4,0.3-1.9,0.9
			C-2496.7,2465.3-2497,2466.2-2497,2467.4 M-2502.4,2467.4c0-2.1,0.7-3.9,2.2-5.3c1.4-1.4,3.4-2.1,5.8-2.1c2.8,0,4.9,0.8,6.3,2.4
			c1.1,1.3,1.7,2.9,1.7,4.8c0,2.1-0.7,3.9-2.1,5.3c-1.4,1.4-3.4,2.1-5.9,2.1c-2.2,0-4.1-0.6-5.4-1.7
			C-2501.5,2471.5-2502.4,2469.7-2502.4,2467.4"/>
	</g>
	<path id="path170" fill="#4682B4" d="M-2401.7,2574.5h-1.7v-70.1h1.7V2574.5z"/>
</g>
</svg>
