<?xml version="1.0" encoding="UTF-8" standalone="no"?>
<svg
   xmlns:dc="http://purl.org/dc/elements/1.1/"
   xmlns:cc="http://creativecommons.org/ns#"
   xmlns:rdf="http://www.w3.org/1999/02/22-rdf-syntax-ns#"
   xmlns:svg="http://www.w3.org/2000/svg"
   xmlns="http://www.w3.org/2000/svg"
   viewBox="0 0 258.40125 160.28625"
   height="160.28625"
   width="258.40125"
   xml:space="preserve"
   version="1.1"
   id="svg2"><metadata
     id="metadata8"><rdf:RDF><cc:Work
         rdf:about=""><dc:format>image/svg+xml</dc:format><dc:type
           rdf:resource="http://purl.org/dc/dcmitype/StillImage" /></cc:Work></rdf:RDF></metadata><defs
     id="defs6"><clipPath
       id="clipPath16"
       clipPathUnits="userSpaceOnUse"><path
         id="path18"
         d="m 0,128.229 206.721,0 L 206.721,0 0,0 0,128.229 Z" /></clipPath></defs><g
     transform="matrix(1.25,0,0,-1.25,0,160.28625)"
     id="g10"><g
       id="g12"><g
         clip-path="url(#clipPath16)"
         id="g14"><g
           transform="translate(32.5334,16.2443)"
           id="g20"><path
             id="path22"
             style="fill:#717170;fill-opacity:1;fill-rule:nonzero;stroke:none"
             d="m 0,0 1.071,0.066 c 0,-0.308 0.048,-0.571 0.142,-0.788 0.095,-0.217 0.27,-0.394 0.524,-0.532 0.255,-0.138 0.551,-0.207 0.89,-0.207 0.473,0 0.828,0.095 1.065,0.284 0.236,0.19 0.355,0.412 0.355,0.668 0,0.186 -0.071,0.362 -0.213,0.527 C 3.688,0.184 3.333,0.388 2.766,0.631 2.201,0.873 1.838,1.044 1.68,1.142 1.416,1.304 1.217,1.495 1.083,1.713 0.949,1.933 0.882,2.184 0.882,2.468 0.882,2.965 1.079,3.391 1.474,3.745 1.868,4.1 2.42,4.278 3.13,4.278 3.919,4.278 4.52,4.095 4.931,3.731 5.344,3.366 5.557,2.886 5.574,2.29 L 4.526,2.219 C 4.511,2.598 4.377,2.898 4.124,3.118 3.872,3.339 3.515,3.45 3.053,3.45 2.682,3.45 2.394,3.364 2.19,3.195 1.984,3.025 1.883,2.842 1.883,2.645 1.883,2.448 1.971,2.274 2.148,2.124 2.266,2.022 2.571,1.864 3.066,1.651 3.885,1.296 4.401,1.016 4.614,0.811 4.954,0.484 5.125,0.085 5.125,-0.384 5.125,-0.695 5.029,-1.002 4.837,-1.302 4.646,-1.601 4.354,-1.841 3.961,-2.019 3.569,-2.199 3.107,-2.289 2.574,-2.289 1.848,-2.289 1.231,-2.11 0.723,-1.751 0.213,-1.392 -0.028,-0.809 0,0" /></g><g
           transform="translate(39.9942,17.789)"
           id="g24"><path
             id="path26"
             style="fill:#717170;fill-opacity:1;fill-rule:nonzero;stroke:none"
             d="M 0,0 3.526,0 C 3.53,0.11 3.532,0.189 3.532,0.237 3.532,0.773 3.397,1.183 3.13,1.47 2.861,1.755 2.516,1.898 2.094,1.898 1.637,1.898 1.22,1.741 0.843,1.425 0.467,1.11 0.185,0.635 0,0 M 3.112,-1.557 4.153,-1.663 C 4.003,-2.18 3.659,-2.67 3.121,-3.135 2.582,-3.601 1.94,-3.834 1.195,-3.834 c -0.465,0 -0.893,0.108 -1.28,0.323 -0.39,0.214 -0.685,0.527 -0.888,0.937 -0.204,0.41 -0.305,0.878 -0.305,1.403 0,0.686 0.159,1.351 0.476,1.997 0.318,0.644 0.728,1.124 1.235,1.437 0.503,0.314 1.05,0.47 1.638,0.47 0.749,0 1.347,-0.233 1.795,-0.698 0.447,-0.465 0.671,-1.1 0.671,-1.905 0,-0.307 -0.028,-0.623 -0.082,-0.946 l -4.627,0 c -0.016,-0.123 -0.024,-0.233 -0.024,-0.332 0,-0.587 0.136,-1.037 0.406,-1.346 0.27,-0.31 0.601,-0.464 0.99,-0.464 0.368,0 0.729,0.12 1.084,0.36 0.355,0.241 0.631,0.588 0.828,1.041" /></g><g
           transform="translate(46.5083,16.8779)"
           id="g28"><path
             id="path30"
             style="fill:#717170;fill-opacity:1;fill-rule:nonzero;stroke:none"
             d="m 0,0 c 0,-0.43 0.042,-0.753 0.124,-0.97 0.118,-0.304 0.287,-0.535 0.506,-0.696 0.219,-0.159 0.462,-0.239 0.731,-0.239 0.351,0 0.699,0.122 1.047,0.369 0.346,0.246 0.628,0.629 0.843,1.146 0.214,0.516 0.322,1.009 0.322,1.479 0,0.516 -0.143,0.926 -0.428,1.233 C 2.858,2.627 2.504,2.781 2.082,2.781 1.822,2.781 1.57,2.71 1.325,2.57 1.081,2.429 0.853,2.217 0.642,1.931 0.431,1.645 0.271,1.303 0.163,0.904 0.054,0.506 0,0.205 0,0 m -1.337,-3.348 1.082,-0.102 c -0.008,-0.244 0.022,-0.427 0.089,-0.549 0.067,-0.122 0.174,-0.217 0.32,-0.284 0.193,-0.087 0.443,-0.13 0.75,-0.13 0.647,0 1.113,0.167 1.397,0.502 0.185,0.225 0.357,0.714 0.515,1.467 l 0.107,0.509 C 2.366,-2.499 1.775,-2.781 1.148,-2.781 c -0.635,0 -1.166,0.235 -1.595,0.701 -0.427,0.468 -0.642,1.129 -0.642,1.985 0,0.706 0.169,1.354 0.507,1.946 0.336,0.592 0.737,1.039 1.203,1.341 0.465,0.301 0.945,0.452 1.438,0.452 0.824,0 1.459,-0.39 1.905,-1.171 l 0.213,1.029 0.982,0 -1.266,-6.064 C 3.755,-3.229 3.573,-3.748 3.348,-4.12 3.124,-4.494 2.811,-4.783 2.411,-4.988 2.01,-5.193 1.547,-5.295 1.023,-5.295 c -0.505,0 -0.939,0.065 -1.304,0.195 -0.364,0.131 -0.637,0.321 -0.817,0.571 -0.179,0.251 -0.269,0.538 -0.269,0.861 0,0.099 0.01,0.205 0.03,0.32" /></g><g
           transform="translate(56.2565,15.2333)"
           id="g32"><path
             id="path34"
             style="fill:#717170;fill-opacity:1;fill-rule:nonzero;stroke:none"
             d="m 0,0 c -0.753,-0.852 -1.524,-1.278 -2.313,-1.278 -0.485,0 -0.876,0.139 -1.173,0.417 -0.299,0.279 -0.447,0.618 -0.447,1.02 0,0.264 0.067,0.718 0.201,1.361 l 0.757,3.627 1.071,0 -0.841,-4.018 C -2.816,0.794 -2.85,0.534 -2.85,0.348 c 0,-0.236 0.071,-0.42 0.215,-0.552 0.144,-0.133 0.355,-0.198 0.637,-0.198 0.298,0 0.591,0.072 0.878,0.218 0.285,0.146 0.532,0.343 0.739,0.592 0.207,0.248 0.376,0.543 0.506,0.882 0.087,0.217 0.187,0.597 0.301,1.141 l 0.568,2.716 1.071,0 -1.313,-6.283 -0.989,0 L 0,0 Z" /></g><g
           transform="translate(58.7057,14.0974)"
           id="g36"><path
             id="path38"
             style="fill:#717170;fill-opacity:1;fill-rule:nonzero;stroke:none"
             d="m 0,0 1.313,6.283 0.947,0 -0.267,-1.285 c 0.323,0.485 0.64,0.844 0.951,1.077 0.308,0.233 0.625,0.35 0.949,0.35 0.213,0 0.474,-0.078 0.787,-0.232 L 4.241,5.199 C 4.056,5.334 3.853,5.401 3.632,5.401 3.258,5.401 2.873,5.192 2.479,4.774 2.084,4.355 1.775,3.605 1.55,2.52 L 1.018,0 0,0 Z" /></g><g
           transform="translate(64.0012,16.5874)"
           id="g40"><path
             id="path42"
             style="fill:#717170;fill-opacity:1;fill-rule:nonzero;stroke:none"
             d="m 0,0 c 0,-0.592 0.142,-1.04 0.426,-1.345 0.284,-0.306 0.645,-0.459 1.083,-0.459 0.229,0 0.455,0.046 0.681,0.14 0.224,0.092 0.433,0.232 0.626,0.422 0.193,0.189 0.359,0.406 0.494,0.648 0.137,0.243 0.246,0.503 0.329,0.783 0.122,0.391 0.184,0.765 0.184,1.124 0,0.568 -0.143,1.01 -0.43,1.323 C 3.108,2.95 2.748,3.107 2.314,3.107 1.979,3.107 1.672,3.026 1.396,2.867 1.12,2.707 0.872,2.473 0.648,2.165 0.426,1.858 0.262,1.5 0.158,1.092 0.053,0.684 0,0.319 0,0 m -1.07,-0.106 c 0,1.226 0.36,2.242 1.083,3.047 0.594,0.662 1.375,0.994 2.343,0.994 0.757,0 1.367,-0.237 1.83,-0.71 C 4.65,2.752 4.881,2.113 4.881,1.308 4.881,0.586 4.735,-0.085 4.444,-0.706 4.152,-1.328 3.736,-1.804 3.199,-2.135 2.66,-2.466 2.093,-2.632 1.497,-2.632 c -0.489,0 -0.933,0.104 -1.334,0.313 -0.4,0.209 -0.706,0.505 -0.916,0.887 -0.212,0.383 -0.317,0.825 -0.317,1.326" /></g><g
           transform="translate(72.7634,14.0974)"
           id="g44"><path
             id="path46"
             style="fill:#717170;fill-opacity:1;fill-rule:nonzero;stroke:none"
             d="m 0,0 1.81,8.673 1.07,0 L 1.071,0 0,0 Z" /></g><g
           transform="translate(76.7968,16.5874)"
           id="g48"><path
             id="path50"
             style="fill:#717170;fill-opacity:1;fill-rule:nonzero;stroke:none"
             d="m 0,0 c 0,-0.592 0.142,-1.04 0.426,-1.345 0.284,-0.306 0.645,-0.459 1.083,-0.459 0.229,0 0.455,0.046 0.681,0.14 0.224,0.092 0.433,0.232 0.626,0.422 0.193,0.189 0.359,0.406 0.494,0.648 0.137,0.243 0.246,0.503 0.329,0.783 0.122,0.391 0.184,0.765 0.184,1.124 0,0.568 -0.143,1.01 -0.43,1.323 C 3.108,2.95 2.748,3.107 2.314,3.107 1.979,3.107 1.672,3.026 1.396,2.867 1.12,2.707 0.872,2.473 0.648,2.165 0.426,1.858 0.262,1.5 0.158,1.092 0.053,0.684 0,0.319 0,0 m -1.07,-0.106 c 0,1.226 0.36,2.242 1.083,3.047 0.594,0.662 1.375,0.994 2.343,0.994 0.757,0 1.367,-0.237 1.83,-0.71 C 4.65,2.752 4.881,2.113 4.881,1.308 4.881,0.586 4.735,-0.085 4.444,-0.706 4.152,-1.328 3.736,-1.804 3.199,-2.135 2.66,-2.466 2.093,-2.632 1.497,-2.632 c -0.489,0 -0.933,0.104 -1.334,0.313 -0.4,0.209 -0.706,0.505 -0.916,0.887 -0.212,0.383 -0.317,0.825 -0.317,1.326" /></g><g
           transform="translate(88.1449,14.9664)"
           id="g52"><path
             id="path54"
             style="fill:#717170;fill-opacity:1;fill-rule:nonzero;stroke:none"
             d="m 0,0 -0.179,-0.876 c -0.256,-0.067 -0.505,-0.099 -0.744,-0.099 -0.426,0 -0.766,0.103 -1.017,0.312 -0.19,0.158 -0.284,0.374 -0.284,0.646 0,0.138 0.05,0.455 0.152,0.952 l 0.764,3.651 -0.845,0 0.17,0.828 0.847,0 0.325,1.543 1.224,0.74 -0.479,-2.283 1.053,0 -0.177,-0.828 -1.047,0 -0.728,-3.474 C -1.056,0.67 -1.102,0.406 -1.102,0.319 c 0,-0.126 0.037,-0.222 0.111,-0.289 0.072,-0.067 0.192,-0.101 0.357,-0.101 0.237,0 0.447,0.024 0.634,0.071" /></g><g
           transform="translate(89.0086,14.0974)"
           id="g56"><path
             id="path58"
             style="fill:#717170;fill-opacity:1;fill-rule:nonzero;stroke:none"
             d="m 0,0 1.313,6.283 0.947,0 -0.267,-1.285 c 0.323,0.485 0.64,0.844 0.951,1.077 0.308,0.233 0.625,0.35 0.949,0.35 0.213,0 0.474,-0.078 0.787,-0.232 L 4.241,5.199 C 4.056,5.334 3.853,5.401 3.632,5.401 3.258,5.401 2.873,5.192 2.479,4.774 2.084,4.355 1.775,3.605 1.55,2.52 L 1.018,0 0,0 Z" /></g><g
           transform="translate(97.6749,17.2802)"
           id="g60"><path
             id="path62"
             style="fill:#717170;fill-opacity:1;fill-rule:nonzero;stroke:none"
             d="m 0,0 c -0.151,-0.059 -0.312,-0.105 -0.482,-0.137 -0.173,-0.031 -0.459,-0.064 -0.862,-0.1 -0.623,-0.055 -1.063,-0.126 -1.319,-0.21 -0.257,-0.085 -0.45,-0.22 -0.579,-0.405 -0.131,-0.185 -0.196,-0.39 -0.196,-0.615 0,-0.3 0.104,-0.547 0.31,-0.74 0.208,-0.194 0.503,-0.29 0.885,-0.29 0.355,0 0.696,0.094 1.023,0.282 0.327,0.186 0.586,0.448 0.776,0.783 C -0.255,-1.096 -0.108,-0.619 0,0 m -0.397,-2.402 c -0.371,-0.319 -0.728,-0.553 -1.07,-0.701 -0.345,-0.148 -0.71,-0.222 -1.102,-0.222 -0.578,0 -1.046,0.17 -1.401,0.512 -0.355,0.34 -0.533,0.778 -0.533,1.31 0,0.351 0.08,0.662 0.24,0.932 0.16,0.27 0.372,0.487 0.636,0.651 0.264,0.163 0.588,0.28 0.97,0.351 0.241,0.048 0.697,0.086 1.37,0.113 0.672,0.028 1.154,0.099 1.446,0.213 0.083,0.292 0.125,0.534 0.125,0.727 0,0.249 -0.092,0.445 -0.273,0.587 -0.248,0.197 -0.612,0.295 -1.089,0.295 -0.45,0 -0.816,-0.1 -1.103,-0.298 -0.285,-0.2 -0.493,-0.483 -0.624,-0.849 l -1.082,0.094 c 0.22,0.623 0.57,1.101 1.05,1.432 0.478,0.331 1.083,0.497 1.813,0.497 0.777,0 1.392,-0.185 1.846,-0.556 C 1.169,2.41 1.342,2.051 1.342,1.609 1.342,1.274 1.292,0.885 1.194,0.443 L 0.845,-1.119 c -0.11,-0.497 -0.165,-0.9 -0.165,-1.212 0,-0.197 0.043,-0.481 0.13,-0.852 l -1.083,0 c -0.058,0.205 -0.1,0.466 -0.124,0.781" /></g><g
           transform="translate(99.7757,14.0974)"
           id="g64"><path
             id="path66"
             style="fill:#717170;fill-opacity:1;fill-rule:nonzero;stroke:none"
             d="m 0,0 1.312,6.283 1.071,0 L 2.164,5.247 C 2.562,5.692 2.919,6 3.233,6.17 3.546,6.339 3.886,6.425 4.253,6.425 4.643,6.425 4.969,6.321 5.232,6.114 5.494,5.907 5.666,5.618 5.75,5.247 6.068,5.641 6.405,5.937 6.759,6.132 7.111,6.327 7.483,6.425 7.873,6.425 8.398,6.425 8.791,6.3 9.054,6.051 9.316,5.803 9.447,5.455 9.447,5.005 9.447,4.812 9.401,4.492 9.31,4.047 L 8.465,0 7.394,0 8.259,4.153 C 8.332,4.492 8.37,4.734 8.37,4.88 8.37,5.085 8.306,5.247 8.175,5.365 8.046,5.483 7.862,5.543 7.625,5.543 7.306,5.543 6.981,5.447 6.65,5.253 6.318,5.06 6.061,4.806 5.877,4.493 5.694,4.179 5.532,3.697 5.395,3.046 L 4.756,0 3.685,0 4.572,4.241 C 4.635,4.529 4.667,4.734 4.667,4.856 4.667,5.061 4.603,5.227 4.475,5.353 4.346,5.479 4.179,5.543 3.976,5.543 3.671,5.543 3.352,5.447 3.02,5.253 2.686,5.06 2.415,4.791 2.206,4.446 1.997,4.1 1.825,3.609 1.691,2.97 L 1.07,0 0,0 Z" /></g><g
           transform="translate(111.3933,21.5568)"
           id="g68"><path
             id="path70"
             style="fill:#717170;fill-opacity:1;fill-rule:nonzero;stroke:none"
             d="m 0,0 0.255,1.213 1.065,0 L 1.065,0 0,0 Z m -1.562,-7.459 1.315,6.282 1.07,0 -1.313,-6.282 -1.072,0 z" /></g><g
           transform="translate(115.0678,14.9664)"
           id="g72"><path
             id="path74"
             style="fill:#717170;fill-opacity:1;fill-rule:nonzero;stroke:none"
             d="m 0,0 -0.179,-0.876 c -0.256,-0.067 -0.505,-0.099 -0.744,-0.099 -0.426,0 -0.766,0.103 -1.017,0.312 -0.19,0.158 -0.284,0.374 -0.284,0.646 0,0.138 0.05,0.455 0.152,0.952 l 0.764,3.651 -0.845,0 0.171,0.828 0.846,0 0.325,1.543 1.224,0.74 -0.479,-2.283 1.053,0 -0.177,-0.828 -1.047,0 -0.728,-3.474 C -1.056,0.67 -1.102,0.406 -1.102,0.319 c 0,-0.126 0.037,-0.222 0.111,-0.289 0.072,-0.067 0.192,-0.101 0.357,-0.101 0.237,0 0.447,0.024 0.634,0.071" /></g><g
           transform="translate(120.5644,17.2802)"
           id="g76"><path
             id="path78"
             style="fill:#717170;fill-opacity:1;fill-rule:nonzero;stroke:none"
             d="m 0,0 c -0.151,-0.059 -0.312,-0.105 -0.482,-0.137 -0.173,-0.031 -0.459,-0.064 -0.862,-0.1 -0.623,-0.055 -1.063,-0.126 -1.319,-0.21 -0.257,-0.085 -0.45,-0.22 -0.579,-0.405 -0.131,-0.185 -0.196,-0.39 -0.196,-0.615 0,-0.3 0.104,-0.547 0.31,-0.74 0.208,-0.194 0.503,-0.29 0.885,-0.29 0.355,0 0.696,0.094 1.023,0.282 0.327,0.186 0.586,0.448 0.776,0.783 C -0.255,-1.096 -0.108,-0.619 0,0 m -0.397,-2.402 c -0.371,-0.319 -0.728,-0.553 -1.07,-0.701 -0.345,-0.148 -0.71,-0.222 -1.102,-0.222 -0.578,0 -1.046,0.17 -1.401,0.512 -0.355,0.34 -0.533,0.778 -0.533,1.31 0,0.351 0.08,0.662 0.24,0.932 0.16,0.27 0.372,0.487 0.636,0.651 0.264,0.163 0.588,0.28 0.97,0.351 0.241,0.048 0.697,0.086 1.37,0.113 0.672,0.028 1.154,0.099 1.446,0.213 0.083,0.292 0.125,0.534 0.125,0.727 0,0.249 -0.092,0.445 -0.273,0.587 -0.248,0.197 -0.612,0.295 -1.089,0.295 -0.45,0 -0.816,-0.1 -1.103,-0.298 -0.285,-0.2 -0.493,-0.483 -0.624,-0.849 l -1.082,0.094 c 0.22,0.623 0.57,1.101 1.05,1.432 0.479,0.331 1.083,0.497 1.813,0.497 0.777,0 1.392,-0.185 1.846,-0.556 C 1.169,2.41 1.342,2.051 1.342,1.609 1.342,1.274 1.292,0.885 1.194,0.443 L 0.845,-1.119 c -0.11,-0.497 -0.165,-0.9 -0.165,-1.212 0,-0.197 0.043,-0.481 0.13,-0.852 l -1.083,0 c -0.058,0.205 -0.1,0.466 -0.124,0.781" /></g><g
           transform="translate(122.6639,14.0974)"
           id="g80"><path
             id="path82"
             style="fill:#717170;fill-opacity:1;fill-rule:nonzero;stroke:none"
             d="m 0,0 1.312,6.283 1.071,0 L 2.164,5.247 C 2.562,5.692 2.919,6 3.233,6.17 3.546,6.339 3.886,6.425 4.253,6.425 4.643,6.425 4.969,6.321 5.232,6.114 5.494,5.907 5.666,5.618 5.75,5.247 6.068,5.641 6.405,5.937 6.759,6.132 7.111,6.327 7.483,6.425 7.873,6.425 8.398,6.425 8.791,6.3 9.054,6.051 9.316,5.803 9.447,5.455 9.447,5.005 9.447,4.812 9.401,4.492 9.31,4.047 L 8.465,0 7.394,0 8.259,4.153 C 8.332,4.492 8.37,4.734 8.37,4.88 8.37,5.085 8.306,5.247 8.175,5.365 8.046,5.483 7.862,5.543 7.625,5.543 7.306,5.543 6.981,5.447 6.65,5.253 6.318,5.06 6.061,4.806 5.877,4.493 5.694,4.179 5.532,3.697 5.395,3.046 L 4.756,0 3.685,0 4.572,4.241 C 4.635,4.529 4.667,4.734 4.667,4.856 4.667,5.061 4.603,5.227 4.475,5.353 4.346,5.479 4.179,5.543 3.976,5.543 3.671,5.543 3.352,5.447 3.02,5.253 2.686,5.06 2.415,4.791 2.206,4.446 1.997,4.1 1.825,3.609 1.691,2.97 L 1.07,0 0,0 Z" /></g><g
           transform="translate(134.0226,16.5874)"
           id="g84"><path
             id="path86"
             style="fill:#717170;fill-opacity:1;fill-rule:nonzero;stroke:none"
             d="m 0,0 c 0,-0.592 0.142,-1.04 0.426,-1.345 0.284,-0.306 0.645,-0.459 1.083,-0.459 0.229,0 0.455,0.046 0.681,0.14 0.224,0.092 0.433,0.232 0.626,0.422 0.193,0.189 0.359,0.406 0.494,0.648 0.137,0.243 0.246,0.503 0.329,0.783 0.122,0.391 0.184,0.765 0.184,1.124 0,0.568 -0.143,1.01 -0.43,1.323 C 3.108,2.95 2.748,3.107 2.314,3.107 1.979,3.107 1.672,3.026 1.396,2.867 1.12,2.707 0.872,2.473 0.648,2.165 0.426,1.858 0.262,1.5 0.158,1.092 0.053,0.684 0,0.319 0,0 m -1.07,-0.106 c 0,1.226 0.36,2.242 1.083,3.047 0.594,0.662 1.375,0.994 2.343,0.994 0.757,0 1.367,-0.237 1.83,-0.71 C 4.65,2.752 4.881,2.113 4.881,1.308 4.881,0.586 4.735,-0.085 4.444,-0.706 4.152,-1.328 3.736,-1.804 3.199,-2.135 2.66,-2.466 2.093,-2.632 1.497,-2.632 c -0.489,0 -0.933,0.104 -1.334,0.313 -0.4,0.209 -0.706,0.505 -0.916,0.887 -0.212,0.383 -0.317,0.825 -0.317,1.326" /></g><g
           transform="translate(139.6007,16.2443)"
           id="g88"><path
             id="path90"
             style="fill:#717170;fill-opacity:1;fill-rule:nonzero;stroke:none"
             d="m 0,0 1.071,0.066 c 0,-0.308 0.048,-0.571 0.142,-0.788 0.095,-0.217 0.27,-0.394 0.524,-0.532 0.255,-0.138 0.551,-0.207 0.89,-0.207 0.473,0 0.828,0.095 1.065,0.284 0.236,0.19 0.355,0.412 0.355,0.668 0,0.186 -0.071,0.362 -0.213,0.527 C 3.688,0.184 3.333,0.388 2.766,0.631 2.201,0.873 1.838,1.044 1.68,1.142 1.416,1.304 1.217,1.495 1.083,1.713 0.949,1.933 0.882,2.184 0.882,2.468 0.882,2.965 1.079,3.391 1.474,3.745 1.868,4.1 2.42,4.278 3.13,4.278 3.919,4.278 4.52,4.095 4.931,3.731 5.344,3.366 5.557,2.886 5.574,2.29 L 4.526,2.219 C 4.511,2.598 4.377,2.898 4.124,3.118 3.872,3.339 3.515,3.45 3.053,3.45 2.682,3.45 2.394,3.364 2.19,3.195 1.984,3.025 1.883,2.842 1.883,2.645 1.883,2.448 1.971,2.274 2.148,2.124 2.266,2.022 2.571,1.864 3.066,1.651 3.885,1.296 4.401,1.016 4.614,0.811 4.954,0.484 5.125,0.085 5.125,-0.384 5.125,-0.695 5.029,-1.002 4.837,-1.302 4.646,-1.601 4.354,-1.841 3.961,-2.019 3.569,-2.199 3.107,-2.289 2.574,-2.289 1.848,-2.289 1.231,-2.11 0.723,-1.751 0.213,-1.392 -0.028,-0.809 0,0" /></g><g
           transform="translate(150.5163,16.665)"
           id="g92"><path
             id="path94"
             style="fill:#717170;fill-opacity:1;fill-rule:nonzero;stroke:none"
             d="m 0,0 c 0,-0.469 0.034,-0.795 0.101,-0.977 0.099,-0.256 0.261,-0.463 0.485,-0.62 0.225,-0.158 0.485,-0.237 0.781,-0.237 0.615,0 1.112,0.346 1.491,1.039 0.379,0.691 0.568,1.398 0.568,2.12 0,0.533 -0.128,0.944 -0.381,1.233 C 2.79,2.849 2.474,2.993 2.096,2.993 1.822,2.993 1.57,2.921 1.338,2.778 1.104,2.633 0.889,2.418 0.69,2.132 0.49,1.846 0.326,1.496 0.196,1.082 0.066,0.668 0,0.308 0,0 m -2.117,-4.976 1.816,8.691 0.987,0 L 0.504,2.84 c 0.366,0.382 0.695,0.648 0.984,0.795 0.291,0.149 0.597,0.222 0.92,0.222 0.6,0 1.097,-0.218 1.491,-0.653 C 4.294,2.767 4.491,2.143 4.491,1.33 4.491,0.676 4.382,0.08 4.165,-0.459 3.948,-0.997 3.682,-1.43 3.367,-1.758 3.051,-2.085 2.732,-2.326 2.408,-2.479 2.085,-2.633 1.754,-2.71 1.415,-2.71 c -0.754,0 -1.337,0.383 -1.752,1.148 l -0.709,-3.414 -1.071,0 z" /></g><g
           transform="translate(156.9227,16.5874)"
           id="g96"><path
             id="path98"
             style="fill:#717170;fill-opacity:1;fill-rule:nonzero;stroke:none"
             d="m 0,0 c 0,-0.592 0.142,-1.04 0.426,-1.345 0.284,-0.306 0.645,-0.459 1.083,-0.459 0.229,0 0.455,0.046 0.681,0.14 0.224,0.092 0.433,0.232 0.626,0.422 0.193,0.189 0.359,0.406 0.494,0.648 0.137,0.243 0.246,0.503 0.329,0.783 0.122,0.391 0.184,0.765 0.184,1.124 0,0.568 -0.143,1.01 -0.43,1.323 C 3.108,2.95 2.748,3.107 2.314,3.107 1.979,3.107 1.672,3.026 1.396,2.867 1.12,2.707 0.872,2.473 0.648,2.165 0.426,1.858 0.262,1.5 0.158,1.092 0.053,0.684 0,0.319 0,0 m -1.07,-0.106 c 0,1.226 0.36,2.242 1.083,3.047 0.594,0.662 1.375,0.994 2.343,0.994 0.757,0 1.367,-0.237 1.83,-0.71 C 4.65,2.752 4.881,2.113 4.881,1.308 4.881,0.586 4.735,-0.085 4.444,-0.706 4.152,-1.328 3.736,-1.804 3.199,-2.135 2.66,-2.466 2.093,-2.632 1.497,-2.632 c -0.489,0 -0.933,0.104 -1.334,0.313 -0.4,0.209 -0.706,0.505 -0.916,0.887 -0.212,0.383 -0.317,0.825 -0.317,1.326" /></g><g
           transform="translate(162.4008,14.0974)"
           id="g100"><path
             id="path102"
             style="fill:#717170;fill-opacity:1;fill-rule:nonzero;stroke:none"
             d="m 0,0 1.313,6.283 0.947,0 -0.267,-1.285 c 0.323,0.485 0.64,0.844 0.951,1.077 0.308,0.233 0.625,0.35 0.949,0.35 0.213,0 0.474,-0.078 0.787,-0.232 L 4.241,5.199 C 4.056,5.334 3.853,5.401 3.632,5.401 3.258,5.401 2.873,5.192 2.479,4.774 2.084,4.355 1.775,3.605 1.55,2.52 L 1.018,0 0,0 Z" /></g><g
           transform="translate(172.3055,14.9664)"
           id="g104"><path
             id="path106"
             style="fill:#717170;fill-opacity:1;fill-rule:nonzero;stroke:none"
             d="m 0,0 -0.179,-0.876 c -0.256,-0.067 -0.505,-0.099 -0.744,-0.099 -0.426,0 -0.766,0.103 -1.017,0.312 -0.19,0.158 -0.284,0.374 -0.284,0.646 0,0.138 0.05,0.455 0.152,0.952 l 0.764,3.651 -0.845,0 0.171,0.828 0.846,0 0.325,1.543 1.224,0.74 -0.479,-2.283 1.053,0 -0.177,-0.828 -1.047,0 -0.728,-3.474 C -1.056,0.67 -1.102,0.406 -1.102,0.319 c 0,-0.126 0.037,-0.222 0.111,-0.289 0.072,-0.067 0.192,-0.101 0.357,-0.101 0.237,0 0.447,0.024 0.634,0.071" /></g><g
           transform="translate(174.6877,21.5568)"
           id="g108"><path
             id="path110"
             style="fill:#717170;fill-opacity:1;fill-rule:nonzero;stroke:none"
             d="m 0,0 0.255,1.213 1.065,0 L 1.065,0 0,0 Z m -1.562,-7.459 1.315,6.282 1.07,0 -1.313,-6.282 -1.072,0 z" /></g><g
           transform="translate(86.9058,104.6345)"
           id="g112"><path
             id="path114"
             style="fill:#717170;fill-opacity:1;fill-rule:nonzero;stroke:none"
             d="m 0,0 c -0.539,0.358 -1.192,0.539 -1.955,0.539 -0.775,0 -1.34,-0.139 -1.693,-0.414 -0.356,-0.273 -0.532,-0.608 -0.532,-1.001 0,-0.438 0.223,-0.768 0.673,-0.992 0.45,-0.226 1.427,-0.426 2.935,-0.607 2.28,-0.257 3.977,-0.617 5.089,-1.077 0.587,-0.243 1.097,-0.544 1.538,-0.896 l 0,3.697 -5.212,-0.514 C 0.674,-0.692 0.393,-0.271 0,0" /></g><g
           transform="translate(44.1759,102.788)"
           id="g116"><path
             id="path118"
             style="fill:#717170;fill-opacity:1;fill-rule:nonzero;stroke:none"
             d="m 0,0 c -0.608,0.69 -1.35,1.036 -2.226,1.036 -0.876,0 -1.575,-0.318 -2.098,-0.951 -0.523,-0.636 -0.785,-1.689 -0.785,-3.161 0,-1.293 0.276,-2.251 0.827,-2.873 0.549,-0.624 1.274,-0.938 2.174,-0.938 0.855,0 1.571,0.323 2.148,0.971 0.579,0.645 0.869,1.62 0.869,2.925 C 0.909,-1.689 0.605,-0.692 0,0" /></g><g
           transform="translate(66.8798,103.8737)"
           id="g120"><path
             id="path122"
             style="fill:#717170;fill-opacity:1;fill-rule:nonzero;stroke:none"
             d="m 0,0 c -0.58,0.575 -1.34,0.86 -2.285,0.86 -1.09,0 -1.961,-0.431 -2.612,-1.298 -0.417,-0.539 -0.68,-1.343 -0.793,-2.409 l 6.759,0 C 0.935,-1.521 0.577,-0.572 0,0" /></g><g
           transform="translate(86.9058,56.4003)"
           id="g124"><path
             id="path126"
             style="fill:#717170;fill-opacity:1;fill-rule:nonzero;stroke:none"
             d="m 0,0 c -0.539,0.358 -1.192,0.539 -1.955,0.539 -0.775,0 -1.34,-0.139 -1.693,-0.414 -0.356,-0.273 -0.532,-0.608 -0.532,-1.001 0,-0.438 0.223,-0.768 0.673,-0.992 0.45,-0.226 1.427,-0.426 2.935,-0.607 2.28,-0.257 3.977,-0.617 5.089,-1.077 0.587,-0.243 1.097,-0.544 1.538,-0.896 l 0,3.697 -5.212,-0.514 C 0.674,-0.692 0.393,-0.271 0,0" /></g><g
           transform="translate(74.9297,49.5044)"
           id="g128"><path
             id="path130"
             style="fill:#717170;fill-opacity:1;fill-rule:nonzero;stroke:none"
             d="m 0,0 -13.754,0 c 0.125,-1.1 0.421,-1.919 0.893,-2.459 0.664,-0.777 1.528,-1.163 2.597,-1.163 0.674,0 1.314,0.167 1.922,0.504 0.37,0.214 0.768,0.591 1.197,1.13 l 6.757,-0.624 c -1.034,-1.797 -2.28,-3.088 -3.741,-3.867 -1.462,-0.782 -3.556,-1.173 -6.288,-1.173 -2.372,0 -4.237,0.335 -5.596,1.003 -1.359,0.669 -2.485,1.731 -3.38,3.187 -0.892,1.455 -1.34,3.165 -1.34,5.132 0,2.798 0.898,5.061 2.69,6.792 1.792,1.731 4.268,2.596 7.423,2.596 2.563,0 4.586,-0.387 6.07,-1.164 1.484,-0.775 2.612,-1.898 3.387,-3.37 C -0.388,5.052 0,3.137 0,0.777 L 0,0 Z m -24.602,5.733 c -0.897,0 -1.595,-0.373 -2.089,-1.114 -0.709,-1.044 -1.062,-3.001 -1.062,-5.865 l 0,-6.001 -6.894,0 0,17.9 6.422,0 0,-2.933 c 0.618,1.27 1.256,2.144 1.913,2.622 0.657,0.478 1.47,0.716 2.435,0.716 1.011,0 2.118,-0.314 3.321,-0.945 l -2.125,-4.887 c -0.807,0.337 -1.448,0.507 -1.921,0.507 m -17.614,33.94 c 0,0.224 0.011,0.528 0.032,0.909 l 6.658,-0.758 c 0.17,-0.617 0.427,-1.046 0.775,-1.281 0.507,-0.349 1.143,-0.523 1.906,-0.523 0.989,0 1.728,0.266 2.216,0.793 0.49,0.528 0.735,1.449 0.735,2.763 l 0,2.716 c -0.676,-0.799 -1.35,-1.378 -2.023,-1.736 -1.058,-0.563 -2.198,-0.843 -3.422,-0.843 -2.393,0 -4.327,1.043 -5.799,3.134 -1.046,1.484 -1.569,3.444 -1.569,5.884 0,2.786 0.677,4.91 2.024,6.37 1.349,1.461 3.113,2.191 5.292,2.191 1.394,0 2.544,-0.236 3.448,-0.707 0.904,-0.473 1.75,-1.253 2.536,-2.343 l 0,2.645 6.423,0 0,-16.906 0.016,-0.791 c 0,-1.124 -0.237,-2.195 -0.716,-3.21 -0.478,-1.018 -1.114,-1.842 -1.905,-2.471 -0.792,-0.629 -1.797,-1.083 -3.017,-1.366 -1.22,-0.28 -2.614,-0.422 -4.187,-0.422 -3.597,0 -6.068,0.54 -7.41,1.619 -1.342,1.081 -2.013,2.524 -2.013,4.333 m 26.978,-12.338 0,5.021 2.527,0 0,3.288 6.877,3.524 0,-6.812 3.776,0 0,-5.021 -3.776,0 0,-6.342 c 0,-0.764 0.073,-1.267 0.219,-1.515 0.226,-0.381 0.62,-0.572 1.18,-0.572 0.506,0 1.216,0.146 2.124,0.438 l 0.507,-4.736 c -1.698,-0.37 -3.283,-0.556 -4.753,-0.556 -1.71,0 -2.967,0.219 -3.777,0.657 -0.808,0.438 -1.407,1.102 -1.795,1.995 -0.386,0.892 -0.582,2.336 -0.582,4.333 l 0,6.298 -2.527,0 z m -2.807,29.361 c 1.792,1.731 4.267,2.596 7.423,2.596 2.563,0 4.586,-0.386 6.069,-1.164 1.484,-0.775 2.612,-1.898 3.387,-3.37 0.775,-1.472 1.164,-3.387 1.164,-5.747 l 0,-0.777 -13.755,0 c 0.125,-1.1 0.422,-1.919 0.893,-2.459 0.664,-0.777 1.529,-1.163 2.598,-1.163 0.673,0 1.314,0.167 1.922,0.504 0.369,0.214 0.767,0.591 1.196,1.13 l 6.757,-0.624 c -1.034,-1.797 -2.28,-3.087 -3.74,-3.867 -1.463,-0.782 -3.556,-1.173 -6.288,-1.173 -2.372,0 -4.237,0.335 -5.596,1.003 -1.359,0.669 -2.485,1.731 -3.38,3.187 -0.893,1.455 -1.34,3.165 -1.34,5.132 0,2.798 0.897,5.061 2.69,6.792 M 16.046,-6.785 c -1.342,-0.577 -3.17,-0.867 -5.486,-0.867 -3.271,0 -5.598,0.466 -6.987,1.399 -1.388,0.933 -2.278,2.259 -2.671,3.978 l 6.809,0.641 c 0.283,-0.808 0.676,-1.388 1.18,-1.736 0.506,-0.349 1.18,-0.523 2.023,-0.523 0.921,0 1.634,0.198 2.141,0.589 0.393,0.292 0.591,0.657 0.591,1.095 0,0.492 -0.259,0.874 -0.777,1.144 -0.37,0.191 -1.354,0.427 -2.949,0.707 C 7.537,0.057 5.883,0.44 4.955,0.796 4.03,1.149 3.248,1.745 2.612,2.588 1.978,3.429 1.661,4.39 1.661,5.469 c 0,1.177 0.343,2.192 1.029,3.047 0.685,0.853 1.627,1.489 2.831,1.91 1.201,0.422 2.814,0.632 4.837,0.632 2.134,0 3.712,-0.163 4.727,-0.488 1.018,-0.327 1.866,-0.831 2.546,-1.517 0.139,-0.14 0.271,-0.297 0.4,-0.458 l 0,9.122 C 17.76,17.364 17.492,17.01 17.16,16.69 15.332,14.933 12.807,14.052 9.583,14.052 c -2.878,0 -5.202,0.73 -6.978,2.193 -2.181,1.808 -3.272,4.178 -3.272,7.112 0,2.73 0.924,4.981 2.766,6.75 1.844,1.771 4.331,2.654 7.468,2.654 3.584,0 6.29,-1.038 8.123,-3.118 0.13,-0.148 0.223,-0.315 0.341,-0.469 l 0,13.515 c -0.542,-0.479 -1.194,-0.899 -1.985,-1.24 -1.342,-0.577 -3.17,-0.867 -5.486,-0.867 -3.271,0 -5.598,0.467 -6.987,1.399 -1.388,0.933 -2.278,2.259 -2.671,3.978 L 7.711,46.6 c 0.283,-0.808 0.676,-1.388 1.18,-1.736 0.506,-0.349 1.18,-0.523 2.023,-0.523 0.921,0 1.634,0.198 2.141,0.589 0.393,0.292 0.591,0.657 0.591,1.095 0,0.492 -0.259,0.874 -0.777,1.145 -0.37,0.19 -1.354,0.426 -2.949,0.706 -2.383,0.415 -4.037,0.799 -4.965,1.154 -0.925,0.353 -1.707,0.949 -2.343,1.792 -0.634,0.841 -0.951,1.802 -0.951,2.881 0,1.177 0.343,2.193 1.029,3.047 0.685,0.853 1.627,1.489 2.831,1.911 1.201,0.421 2.814,0.631 4.837,0.631 2.134,0 3.712,-0.163 4.727,-0.488 1.018,-0.327 1.866,-0.831 2.546,-1.517 0.139,-0.14 0.271,-0.297 0.4,-0.458 l 0,10.313 -81.998,0 0,-81.998 81.998,0 0,9.311 c -0.542,-0.48 -1.194,-0.899 -1.985,-1.24" /></g><g
           transform="translate(82.118,76.392)"
           id="g132"><path
             id="path134"
             style="fill:#717170;fill-opacity:1;fill-rule:nonzero;stroke:none"
             d="m 0,0 c -0.65,-0.77 -0.978,-1.941 -0.978,-3.514 0,-1.597 0.323,-2.777 0.971,-3.54 0.645,-0.765 1.457,-1.147 2.435,-1.147 0.989,0 1.802,0.377 2.435,1.131 0.636,0.751 0.954,1.959 0.954,3.624 0,1.55 -0.32,2.704 -0.961,3.463 C 4.216,0.775 3.422,1.154 2.48,1.154 1.479,1.154 0.652,0.77 0,0" /></g><g
           transform="translate(64.5974,56.4993)"
           id="g136"><path
             id="path138"
             style="fill:#717170;fill-opacity:1;fill-rule:nonzero;stroke:none"
             d="m 0,0 c -1.09,0 -1.962,-0.431 -2.612,-1.298 -0.417,-0.539 -0.68,-1.342 -0.793,-2.409 l 6.759,0 C 3.22,-2.381 2.862,-1.432 2.285,-0.86 1.705,-0.285 0.944,0 0,0" /></g><g
           transform="translate(120.8957,85.5413)"
           id="g140"><path
             id="path142"
             style="fill:#717170;fill-opacity:1;fill-rule:nonzero;stroke:none"
             d="m 0,0 c -0.084,0.827 -0.306,1.42 -0.668,1.777 -0.361,0.358 -0.836,0.537 -1.425,0.537 -0.68,0 -1.224,-0.27 -1.63,-0.81 C -3.982,1.167 -4.148,0.666 -4.217,0 L 0,0 Z m 4.354,-2.051 -8.582,0 c 0.078,-0.687 0.263,-1.199 0.557,-1.535 0.415,-0.484 0.954,-0.726 1.62,-0.726 0.421,0 0.82,0.105 1.199,0.315 0.231,0.133 0.48,0.369 0.747,0.705 L 4.112,-3.681 C 3.467,-4.803 2.688,-5.608 1.777,-6.095 0.866,-6.582 -0.442,-6.826 -2.146,-6.826 c -1.479,0 -2.643,0.209 -3.491,0.626 -0.848,0.417 -1.552,1.079 -2.109,1.988 -0.557,0.908 -0.836,1.975 -0.836,3.202 0,1.746 0.559,3.159 1.677,4.239 1.119,1.079 2.663,1.619 4.633,1.619 1.599,0 2.861,-0.241 3.786,-0.725 C 2.44,3.639 3.145,2.938 3.628,2.019 4.112,1.1 4.354,-0.095 4.354,-1.567 l 0,-0.484 z" /></g><g
           transform="translate(127.2166,90.1374)"
           id="g144"><path
             id="path146"
             style="fill:#717170;fill-opacity:1;fill-rule:nonzero;stroke:none"
             d="m 0,0 3.986,0 0,-1.819 c 0.596,0.742 1.199,1.273 1.809,1.593 0.61,0.319 1.353,0.478 2.23,0.478 1.184,0 2.112,-0.352 2.782,-1.057 0.669,-0.704 1.004,-1.793 1.004,-3.265 l 0,-7.099 -4.302,0 0,6.142 c 0,0.7 -0.13,1.197 -0.389,1.488 -0.259,0.29 -0.624,0.436 -1.094,0.436 -0.519,0 -0.94,-0.196 -1.262,-0.589 C 4.442,-4.085 4.281,-4.789 4.281,-5.806 l 0,-5.363 -4.281,0 L 0,0 Z" /></g><g
           transform="translate(113.0814,68.5388)"
           id="g148"><path
             id="path150"
             style="fill:#717170;fill-opacity:1;fill-rule:nonzero;stroke:none"
             d="M 0,0 6.266,0 8.682,-9.381 11.081,0 l 6.262,0 0,-15.418 -3.902,0 0,11.758 -3.007,-11.758 -3.531,0 -3.001,11.758 0,-11.758 -3.902,0 L 0,0 Z" /></g><g
           transform="translate(138.9539,68.8018)"
           id="g152"><path
             id="path154"
             style="fill:#717170;fill-opacity:1;fill-rule:nonzero;stroke:none"
             d="m 0,0 3.681,0 -3.397,-3.145 -2.051,0 L 0,0 Z m 2.272,-9.108 c -0.084,0.827 -0.307,1.42 -0.668,1.777 -0.362,0.358 -0.836,0.537 -1.425,0.537 -0.68,0 -1.224,-0.27 -1.63,-0.81 -0.259,-0.337 -0.425,-0.838 -0.495,-1.504 l 4.218,0 z m 4.354,-2.051 -8.582,0 c 0.077,-0.687 0.263,-1.199 0.557,-1.535 0.414,-0.484 0.953,-0.726 1.62,-0.726 0.421,0 0.82,0.105 1.199,0.315 0.231,0.133 0.48,0.369 0.747,0.705 l 4.217,-0.389 C 5.738,-13.911 4.96,-14.716 4.049,-15.203 3.138,-15.69 1.83,-15.934 0.126,-15.934 c -1.479,0 -2.644,0.209 -3.492,0.626 -0.847,0.417 -1.551,1.079 -2.108,1.988 -0.558,0.908 -0.836,1.975 -0.836,3.202 0,1.746 0.558,3.159 1.677,4.239 1.119,1.079 2.662,1.62 4.633,1.62 1.599,0 2.861,-0.242 3.786,-0.726 0.926,-0.484 1.63,-1.185 2.114,-2.104 0.484,-0.919 0.726,-2.114 0.726,-3.586 l 0,-0.484 z" /></g><g
           transform="translate(146.5894,64.2898)"
           id="g156"><path
             id="path158"
             style="fill:#717170;fill-opacity:1;fill-rule:nonzero;stroke:none"
             d="M 0,0 5.08,0 6.852,-3.113 8.919,0 l 4.722,0 -3.81,-5.322 4.083,-5.847 -4.995,0 -2.067,3.597 -2.424,-3.597 -4.638,0 4.057,5.847 L 0,0 Z" /></g><path
           id="path160"
           style="fill:#717170;fill-opacity:1;fill-rule:nonzero;stroke:none"
           d="m 162.071,64.29 4.281,0 0,-11.169 -4.281,0 0,11.169 z m 0,4.249 4.281,0 0,-2.913 -4.281,0 0,2.913 z" /><g
           transform="translate(177.4156,57.4957)"
           id="g162"><path
             id="path164"
             style="fill:#717170;fill-opacity:1;fill-rule:nonzero;stroke:none"
             d="M 0,0 4.07,-0.463 C 3.845,-1.311 3.477,-2.046 2.966,-2.666 2.454,-3.287 1.8,-3.769 1.004,-4.112 0.209,-4.455 -0.803,-4.628 -2.03,-4.628 c -1.184,0 -2.172,0.111 -2.96,0.332 -0.789,0.22 -1.468,0.577 -2.036,1.071 -0.567,0.494 -1.013,1.074 -1.335,1.739 -0.322,0.666 -0.484,1.548 -0.484,2.648 0,1.149 0.196,2.105 0.589,2.869 0.288,0.56 0.68,1.063 1.178,1.508 0.498,0.445 1.01,0.775 1.535,0.993 0.835,0.343 1.904,0.515 3.208,0.515 1.824,0 3.213,-0.326 4.17,-0.979 C 2.792,5.416 3.464,4.463 3.849,3.208 L -0.179,2.671 C -0.305,3.148 -0.535,3.508 -0.868,3.749 -1.2,3.991 -1.647,4.112 -2.209,4.112 -2.917,4.112 -3.49,3.859 -3.928,3.351 -4.366,2.844 -4.586,2.076 -4.586,1.046 c 0,-0.916 0.217,-1.613 0.653,-2.089 0.435,-0.475 0.988,-0.713 1.661,-0.713 0.562,0 1.032,0.143 1.415,0.431 C -0.475,-1.038 -0.189,-0.596 0,0" /></g><g
           transform="translate(187.2177,58.6841)"
           id="g166"><path
             id="path168"
             style="fill:#717170;fill-opacity:1;fill-rule:nonzero;stroke:none"
             d="m 0,0 c 0,-0.996 0.201,-1.732 0.605,-2.209 0.403,-0.477 0.909,-0.715 1.519,-0.715 0.617,0 1.125,0.235 1.52,0.705 0.396,0.469 0.594,1.223 0.594,2.261 0,0.968 -0.199,1.688 -0.599,2.161 -0.4,0.474 -0.894,0.71 -1.483,0.71 -0.624,0 -1.14,-0.24 -1.546,-0.72 C 0.204,1.712 0,0.981 0,0 m -4.291,-0.011 c 0,1.704 0.574,3.108 1.725,4.213 1.15,1.104 2.703,1.656 4.659,1.656 2.236,0 3.927,-0.649 5.069,-1.946 C 8.081,2.867 8.54,1.581 8.54,0.053 8.54,-1.666 7.971,-3.073 6.831,-4.17 5.691,-5.268 4.116,-5.816 2.103,-5.816 c -1.794,0 -3.245,0.455 -4.354,1.367 -1.36,1.129 -2.04,2.608 -2.04,4.438" /></g><path
           id="path170"
           style="fill:#717170;fill-opacity:1;fill-rule:nonzero;stroke:none"
           d="m 103.437,45.879 -1.346,0 0,56.089 1.346,0 0,-56.089 z" /></g></g></g></svg>