<?xml version="1.0" encoding="UTF-8" standalone="no"?>
<svg
   xmlns:dc="http://purl.org/dc/elements/1.1/"
   xmlns:cc="http://creativecommons.org/ns#"
   xmlns:rdf="http://www.w3.org/1999/02/22-rdf-syntax-ns#"
   xmlns:svg="http://www.w3.org/2000/svg"
   xmlns="http://www.w3.org/2000/svg"
   viewBox="0 0 832.5 712.5"
   height="712.5"
   width="832.5"
   xml:space="preserve"
   version="1.1"
   id="svg2"><metadata
     id="metadata8"><rdf:RDF><cc:Work
         rdf:about=""><dc:format>image/svg+xml</dc:format><dc:type
           rdf:resource="http://purl.org/dc/dcmitype/StillImage" /></cc:Work></rdf:RDF></metadata><defs
     id="defs6"><clipPath
       id="clipPath16"
       clipPathUnits="userSpaceOnUse"><path
         id="path18"
         d="M 0,570 666,570 666,0 0,0 0,570 Z" /></clipPath><clipPath
       id="clipPath24"
       clipPathUnits="userSpaceOnUse"><path
         id="path26"
         d="m 22.5987,50.0443 624.0783,0 0,-40.6971 -624.0783,0 0,40.6971 z" /></clipPath><clipPath
       id="clipPath56"
       clipPathUnits="userSpaceOnUse"><path
         id="path58"
         d="m 215.986,301.383 122.882,0 0,-262.1603 -122.882,0 0,262.1603 z" /></clipPath><clipPath
       id="clipPath134"
       clipPathUnits="userSpaceOnUse"><path
         id="path136"
         d="m 274.794,401.266 312.111,0 0,-162.826 -312.111,0 0,162.826 z" /></clipPath><clipPath
       id="clipPath178"
       clipPathUnits="userSpaceOnUse"><path
         id="path180"
         d="m 420.841,497.338 20.019,0 0,-7.517 -20.019,0 0,7.517 z" /></clipPath><clipPath
       id="clipPath192"
       clipPathUnits="userSpaceOnUse"><path
         id="path194"
         d="m 99.3673,235.718 209.3837,0 0,-71.694 -209.3837,0 0,71.694 z" /></clipPath></defs><g
     transform="matrix(1.25,0,0,-1.25,0,712.5)"
     id="g10"><g
       id="g12"><g
         clip-path="url(#clipPath16)"
         id="g14"><g
           id="g20"><g
             id="g22" /><g
             id="g28"><g
               style="opacity:0.05000311"
               id="g30"
               clip-path="url(#clipPath24)"><g
                 id="g32"
                 transform="translate(334.6377,50.0443)"><path
                   id="path34"
                   style="fill:#000000;fill-opacity:1;fill-rule:nonzero;stroke:none"
                   d="m 0,0 c -172.334,0 -312.039,-9.11 -312.039,-20.349 0,-11.238 139.705,-20.348 312.039,-20.348 172.334,0 312.039,9.11 312.039,20.348 C 312.039,-9.11 172.334,0 0,0" /></g></g></g></g><g
           transform="translate(336.1452,50.0055)"
           id="g36"><path
             id="path38"
             style="fill:#523d26;fill-opacity:1;fill-rule:nonzero;stroke:none"
             d="m 0,0 c -22.737,24.266 -38.461,0.968 -38.461,0.968 l -28.631,123.615 c -90.02,-24.35 -136.965,-57.592 -136.965,-57.592 l -5.03,-78.657 c 0,0 -13.114,11.775 -28.275,1.774 -20.276,-13.379 37.27,-15.445 37.27,-15.445 l 14.035,80.325 c 72.556,15.776 105.395,36.696 105.395,36.696 L -44.935,-12.23 c 0,0 61.103,-5.026 44.935,12.23" /></g><g
           transform="translate(236.7682,281.8783)"
           id="g40"><path
             id="path42"
             style="fill:#fddcbe;fill-opacity:1;fill-rule:nonzero;stroke:none"
             d="m 0,0 c 0,0 -45.91,177.024 -159.279,71.176 0,0 -30.873,-46.583 0.562,-133.94 C -18.413,-40.546 0,0 0,0" /></g><g
           transform="translate(195.9705,454.459)"
           id="g44"><path
             id="path46"
             style="fill:#523d26;fill-opacity:1;fill-rule:nonzero;stroke:none"
             d="m 0,0 c 0,0 39.483,-110.131 -103.378,-127.724 l 3.299,-35.214 c 0,0 -19.133,7.894 -17.722,-9.163 1.409,-17.064 18.188,-3.396 18.188,-3.396 0,0 -2.789,-42.442 -18.307,-59.848 1.139,-1.037 -107.342,144.334 -26.25,152.294 0,0 -1.093,34.348 41.987,51.885 C -57.533,-12.989 -19.149,-62.196 0,0" /></g><g
           transform="translate(236.7682,281.8783)"
           id="g48"><path
             id="path50"
             style="fill:#c9e3f1;fill-opacity:1;fill-rule:nonzero;stroke:none"
             d="m 0,0 32.285,-107.29 c 0,0 -49.12,-34.566 -136.965,-57.592 l -54.037,102.118 c 0,0 111.991,24.601 158.717,62.764" /></g><g
           id="g52"><g
             id="g54" /><g
             id="g60"><g
               style="opacity:0.05000311"
               id="g62"
               clip-path="url(#clipPath56)"><g
                 id="g64"
                 transform="translate(303.0349,56.4542)"><path
                   id="path66"
                   style="fill:#000000;fill-opacity:1;fill-rule:nonzero;stroke:none"
                   d="m 0,0 c 9.096,-6.491 18.742,-12.256 28.849,-17.232 6.517,1.824 9.595,5.09 4.261,10.783 C 18.289,9.37 6.449,4.976 0,0" /></g><g
                 id="g68"
                 transform="translate(295.0213,62.4696)"><path
                   id="path70"
                   style="fill:#000000;fill-opacity:1;fill-rule:nonzero;stroke:none"
                   d="m 0,0 -25.968,112.118 -32.285,107.291 c 0,0 -2.067,7.965 -6.403,19.505 -9.281,-23.54 -14.379,-49.187 -14.379,-76.024 0,-33.324 7.873,-64.805 21.841,-92.704 11.934,5.39 17.656,9.034 17.656,9.034 L -17.686,15.663 C -12.094,10.117 -6.191,4.884 0,0" /></g></g></g></g><g
           transform="translate(202.762,246.438)"
           id="g72"><path
             id="path74"
             style="fill:#523d26;fill-opacity:1;fill-rule:nonzero;stroke:none"
             d="m 0,0 5.521,-5.112 -2.146,-8.994 18.278,-59.175 -14.521,-21.801 -20.776,16.963 8.051,60.059 -8.182,5.881 1.114,6.125 L 0,0 Z" /></g><g
           transform="translate(183.009,326.163)"
           id="g76"><path
             id="path78"
             style="fill:#523d26;fill-opacity:1;fill-rule:nonzero;stroke:none"
             d="m 0,0 c 2.388,-5.933 6.61,-9.827 9.428,-8.703 2.819,1.126 3.169,6.85 0.779,12.781 -2.394,5.933 -6.616,9.827 -9.43,8.703 C -2.043,11.657 -2.388,5.932 0,0" /></g><g
           transform="translate(114.4868,295.967)"
           id="g80"><path
             id="path82"
             style="fill:#523d26;fill-opacity:1;fill-rule:nonzero;stroke:none"
             d="m 0,0 c 2.386,-5.932 6.604,-9.832 9.428,-8.703 2.808,1.128 3.161,6.853 0.766,12.782 C 7.808,10.012 3.589,13.908 0.77,12.781 -2.047,11.655 -2.395,5.933 0,0" /></g><g
           transform="translate(189.0528,299.0731)"
           id="g84"><path
             id="path86"
             style="fill:#eb7d86;fill-opacity:1;fill-rule:nonzero;stroke:none"
             d="m 0,0 c -7.053,-2.36 -29.254,-10.219 -43.235,-20.039 -1.075,-0.755 -1.448,-2.168 -0.94,-3.38 2.444,-5.837 11.24,-20.985 34.063,-11.126 C 12.41,-24.816 6.4,-7.491 3.419,-1.434 2.794,-0.164 1.343,0.449 0,0" /></g><g
           transform="translate(318.6375,77.1212)"
           id="g88"><path
             id="path90"
             style="fill:#523d26;fill-opacity:1;fill-rule:nonzero;stroke:none"
             d="m 0,0 -18.784,-32.613 c -3.678,-6.388 -1.485,-14.548 4.904,-18.227 2.098,-1.209 4.389,-1.782 6.647,-1.782 4.617,0 9.107,2.398 11.577,6.686 l 18.78,32.605 C 15.103,-9.385 7.378,-4.935 0,0" /></g><g
           transform="translate(543.0614,77.1212)"
           id="g92"><path
             id="path94"
             style="fill:#523d26;fill-opacity:1;fill-rule:nonzero;stroke:none"
             d="m 0,0 c -7.377,-4.935 -15.104,-9.385 -23.124,-13.331 l 18.78,-32.605 c 3.675,-6.385 11.834,-8.586 18.223,-4.904 6.39,3.679 8.583,11.839 4.904,18.227 L 0,0 Z" /></g><g
           transform="translate(555.4695,404.2538)"
           id="g96"><path
             id="path98"
             style="fill:#f5f5f5;fill-opacity:1;fill-rule:nonzero;stroke:none"
             d="M 0,0 36.83,52.6 17.698,65.995 -19.152,13.368 C -12.495,9.287 -6.118,4.801 0,0" /></g><g
           transform="translate(325.381,417.6221)"
           id="g100"><path
             id="path102"
             style="fill:#f5f5f5;fill-opacity:1;fill-rule:nonzero;stroke:none"
             d="M 0,0 -36.85,52.626 -55.983,39.231 -19.151,-13.368 C -13.033,-8.567 -6.657,-4.081 0,0" /></g><path
           id="path104"
           style="fill:#f5f5f5;fill-opacity:1;fill-rule:nonzero;stroke:none"
           d="m 440.86,368.325 -20.019,0 0,139.022 20.019,0 0,-139.022 z" /><g
           transform="translate(452.0885,497.3379)"
           id="g106"><path
             id="path108"
             style="fill:#f5f5f5;fill-opacity:1;fill-rule:nonzero;stroke:none"
             d="m 0,0 -42.479,0 c -5.529,0 -10.009,4.482 -10.009,10.01 0,5.527 4.48,10.009 10.009,10.009 l 42.479,0 c 5.529,0 10.009,-4.482 10.009,-10.009 C 10.009,4.482 5.529,0 0,0" /></g><g
           transform="translate(634.675,502.7224)"
           id="g110"><path
             id="path112"
             style="fill:#f5f5f5;fill-opacity:1;fill-rule:nonzero;stroke:none"
             d="m 0,0 c -6.361,-9.085 -18.882,-11.292 -27.967,-4.931 -9.084,6.361 -11.292,18.882 -4.931,27.966 6.361,9.085 18.882,11.293 27.967,4.932 C 4.153,21.605 6.361,9.084 0,0" /></g><g
           transform="translate(259.9218,525.7577)"
           id="g114"><path
             id="path116"
             style="fill:#f5f5f5;fill-opacity:1;fill-rule:nonzero;stroke:none"
             d="m 0,0 c 6.361,-9.084 4.153,-21.605 -4.931,-27.967 -9.085,-6.361 -21.606,-4.153 -27.967,4.932 -6.361,9.084 -4.153,21.605 4.931,27.966 C -18.882,11.292 -6.361,9.085 0,0" /></g><g
           transform="translate(638.2124,245.21)"
           id="g118"><path
             id="path120"
             style="fill:#d66538;fill-opacity:1;fill-rule:nonzero;stroke:none"
             d="m 0,0 c 0,-114.523 -92.84,-207.363 -207.363,-207.363 -114.523,0 -207.363,92.84 -207.363,207.363 0,114.523 92.84,207.363 207.363,207.363 C -92.84,207.363 0,114.523 0,0" /></g><g
           transform="translate(623.2981,245.21)"
           id="g122"><path
             id="path124"
             style="fill:#cc6034;fill-opacity:1;fill-rule:nonzero;stroke:none"
             d="m 0,0 c 0,-106.286 -86.162,-192.449 -192.449,-192.449 -106.286,0 -192.448,86.163 -192.448,192.449 0,106.286 86.162,192.449 192.448,192.449 C -86.162,192.449 0,106.286 0,0" /></g><g
           transform="translate(586.9051,245.21)"
           id="g126"><path
             id="path128"
             style="fill:#f5f5f5;fill-opacity:1;fill-rule:nonzero;stroke:none"
             d="m 0,0 c 0,-86.187 -69.869,-156.056 -156.056,-156.056 -86.187,0 -156.055,69.869 -156.055,156.056 0,86.187 69.868,156.056 156.055,156.056 C -69.869,156.056 0,86.187 0,0" /></g><g
           id="g130"><g
             id="g132" /><g
             id="g138"><g
               style="opacity:0.05000311"
               id="g140"
               clip-path="url(#clipPath134)"><g
                 id="g142"
                 transform="translate(430.8494,387.7261)"><path
                   id="path144"
                   style="fill:#000000;fill-opacity:1;fill-rule:nonzero;stroke:none"
                   d="m 0,0 c 83.917,0 152.337,-66.243 155.885,-149.286 0.096,2.247 0.171,4.499 0.171,6.77 C 156.056,-56.329 86.187,13.54 0,13.54 c -86.187,0 -156.056,-69.869 -156.056,-156.056 0,-2.271 0.076,-4.523 0.171,-6.77 C -152.337,-66.243 -83.917,0 0,0" /></g></g></g></g><g
           transform="translate(430.8504,240.2056)"
           id="g146"><path
             id="path148"
             style="fill:#523d26;fill-opacity:1;fill-rule:nonzero;stroke:none"
             d="m 0,0 c -2.763,0 -5.005,2.24 -5.005,5.005 l 0,121.37 c 0,2.765 2.242,5.005 5.005,5.005 2.763,0 5.005,-2.24 5.005,-5.005 l 0,-121.37 C 5.005,2.24 2.763,0 0,0" /></g><g
           transform="translate(383.3377,187.6866)"
           id="g150"><path
             id="path152"
             style="fill:#523d26;fill-opacity:1;fill-rule:nonzero;stroke:none"
             d="m 0,0 c -2.561,0 -5.122,0.977 -7.077,2.931 -3.91,3.91 -3.91,10.247 0,14.156 l 47.513,47.514 c 3.91,3.91 10.244,3.908 14.154,0.001 3.91,-3.91 3.91,-10.247 0,-14.155 L 7.077,2.932 C 5.122,0.977 2.561,0 0,0" /></g><g
           transform="translate(448.7359,245.2101)"
           id="g154"><path
             id="path156"
             style="fill:#cc6034;fill-opacity:1;fill-rule:nonzero;stroke:none"
             d="m 0,0 c 0,-9.878 -8.008,-17.887 -17.886,-17.887 -9.879,0 -17.887,8.009 -17.887,17.887 0,9.878 8.008,17.886 17.887,17.886 C -8.008,17.886 0,9.878 0,0" /></g><g
           transform="translate(609.5174,501.8033)"
           id="g158"><path
             id="path160"
             style="fill:#cc6034;fill-opacity:1;fill-rule:nonzero;stroke:none"
             d="m 0,0 c -39.874,27.92 -93.981,20.346 -124.812,-16.105 -3.008,-3.557 -2.205,-8.971 1.611,-11.642 l 139.265,-97.515 c 3.816,-2.671 9.177,-1.574 11.491,2.469 C 51.263,-81.355 39.873,-27.92 0,0" /></g><g
           transform="translate(252.1811,501.803)"
           id="g162"><path
             id="path164"
             style="fill:#cc6034;fill-opacity:1;fill-rule:nonzero;stroke:none"
             d="m 0,0 c -39.874,-27.92 -51.263,-81.355 -27.554,-122.793 2.313,-4.043 7.675,-5.14 11.49,-2.469 l 139.266,97.515 c 3.815,2.672 4.618,8.086 1.61,11.642 C 93.982,20.346 39.874,27.92 0,0" /></g><g
           transform="translate(376.9932,485.6981)"
           id="g166"><path
             id="path168"
             style="fill:#d66538;fill-opacity:1;fill-rule:nonzero;stroke:none"
             d="m 0,0 c -30.83,36.452 -84.939,44.025 -124.812,16.105 l 67.059,-67.059 56.143,39.312 C 2.205,-8.97 3.008,-3.556 0,0" /></g><g
           transform="translate(484.7057,485.6981)"
           id="g170"><path
             id="path172"
             style="fill:#d66538;fill-opacity:1;fill-rule:nonzero;stroke:none"
             d="m 0,0 c -3.008,-3.556 -2.205,-8.97 1.61,-11.642 l 56.143,-39.311 67.059,67.058 C 84.938,44.025 30.83,36.452 0,0" /></g><g
           id="g174"><g
             id="g176" /><g
             id="g182"><g
               style="opacity:0.05000311"
               id="g184"
               clip-path="url(#clipPath178)"><path
                 id="path186"
                 style="fill:#000000;fill-opacity:1;fill-rule:nonzero;stroke:none"
                 d="m 440.86,489.821 -20.019,0 0,7.517 20.019,0 0,-7.517 z" /></g></g></g><g
           id="g188"><g
             id="g190" /><g
             id="g196"><g
               style="opacity:0.05000311"
               id="g198"
               clip-path="url(#clipPath192)"><g
                 id="g200"
                 transform="translate(308.0058,211.4795)"><path
                   id="path202"
                   style="fill:#000000;fill-opacity:1;fill-rule:nonzero;stroke:none"
                   d="m 0,0 c -1.238,0.965 -2.501,0.594 -3.754,-0.281 1.073,1.294 1.914,3.449 0.574,4.476 -1.019,0.796 -3.105,0.388 -4.066,-0.606 0.958,1.285 1.459,3.984 0.352,4.85 -1.245,0.97 -3.636,0.781 -4.893,-0.085 1.394,1.78 14.146,13.584 11.503,15.697 -2.644,2.112 -17.553,-14.229 -19.972,-16.846 -2.418,-2.616 -54.149,-65.207 -155.919,-16.99 -9.606,4.156 -15.654,7.539 -26.302,15.116 l -6.162,-20.157 c 8.45,-5.91 16.544,-10.296 24.293,-13.431 C -72.188,-79.878 -8.029,-11.333 -5.128,-8.811 -2.228,-6.289 2.603,-2.017 0,0" /></g></g></g></g><g
           transform="translate(302.1186,215.2157)"
           id="g204"><path
             id="path206"
             style="fill:#fddcbe;fill-opacity:1;fill-rule:nonzero;stroke:none"
             d="M 0,0 C 2.739,2.697 7.297,7.258 4.575,9.111 3.279,9.998 2.042,9.55 0.845,8.599 c 0.992,1.358 1.697,3.561 0.297,4.503 -1.175,0.806 -3.57,0.079 -4.27,-1.188 1.056,1.16 1.564,4.326 0.301,5.195 C -4.129,18 -6.505,17.664 -7.705,16.722 -6.424,18.584 5.576,31.153 2.807,33.098 0.038,35.044 -13.834,17.813 -16.087,15.053 -18.34,12.292 -66.109,-53.372 -170.661,-11.527 l -7.016,-18.941 C -62.547,-75.07 -2.739,-2.696 0,0" /></g><g
           transform="translate(99.3673,196.6539)"
           id="g208"><path
             id="path210"
             style="fill:#c9e3f1;fill-opacity:1;fill-rule:nonzero;stroke:none"
             d="M 0,0 C 8.798,-5.378 17.147,-9.255 25.075,-11.906 L 32.091,7.035 C 22.246,10.59 16.001,13.593 4.906,20.498 L 0,0 Z" /></g></g></g></g></svg>